<?xml version="1.0" standalone="no"?>
<!DOCTYPE svg PUBLIC "-//W3C//DTD SVG 20010904//EN"
 "http://www.w3.org/TR/2001/REC-SVG-20010904/DTD/svg10.dtd">
<svg version="1.0" xmlns="http://www.w3.org/2000/svg"
 width="960.000000pt" height="960.000000pt" viewBox="0 0 960.000000 960.000000"
 preserveAspectRatio="xMidYMid meet">
<metadata>
Created by potrace 1.14, written by Peter Selinger 2001-2017
</metadata>
<g transform="translate(0.000000,960.000000) scale(0.100000,-0.100000)"
fill="#000000" stroke="none">
<path d="M4965 7191 c-3 -5 -2 -12 3 -15 5 -3 9 1 9 9 0 17 -3 19 -12 6z"/>
<path d="M4743 7175 c0 -8 4 -12 9 -9 5 3 6 10 3 15 -9 13 -12 11 -12 -6z"/>
<path d="M4797 7184 c-3 -3 -3 -12 -1 -18 3 -7 -2 -13 -10 -13 -8 0 -12 7 -9
16 5 13 3 13 -8 -1 -8 -10 -23 -16 -34 -13 -11 2 -20 4 -20 5 0 7 -47 4 -52
-3 -3 -6 -1 -7 5 -3 6 3 14 1 18 -5 4 -8 9 -7 15 2 6 10 9 10 9 2 0 -16 -17
-26 -25 -13 -4 6 -12 7 -18 3 -30 -19 -96 5 -80 30 3 6 1 7 -6 3 -8 -5 -9 -12
-2 -20 6 -7 6 -17 1 -26 -8 -12 -10 -11 -11 5 l0 20 -9 -20 c-8 -19 -11 -18
-14 4 0 5 -4 13 -8 17 -4 3 -6 -3 -3 -15 4 -22 -9 -29 -21 -9 -5 7 -11 5 -21
-7 -9 -14 -13 -15 -13 -4 -1 10 -3 10 -11 -3 -5 -9 -16 -15 -24 -12 -8 4 -12
11 -8 17 3 6 1 7 -5 3 -7 -4 -12 -14 -12 -22 0 -8 -4 -14 -9 -14 -6 0 -8 10
-6 21 4 20 3 20 -14 5 -10 -9 -21 -13 -26 -9 -4 5 -5 2 -1 -4 4 -7 2 -13 -4
-13 -6 0 -8 -5 -4 -12 4 -7 3 -8 -5 -4 -6 4 -9 11 -6 16 12 20 -15 18 -29 -2
-9 -12 -16 -17 -16 -10 0 7 -5 10 -10 7 -6 -4 -7 -12 -3 -18 4 -7 -2 -5 -12 3
-11 9 -16 10 -11 3 7 -13 -4 -17 -33 -14 -7 2 -10 -3 -6 -9 3 -6 3 -10 -2 -9
-4 1 -11 0 -15 -1 -20 -6 -34 -5 -40 5 -4 5 -8 -1 -9 -15 0 -14 -3 -20 -5 -13
-3 7 -12 9 -20 6 -7 -3 -11 -9 -8 -14 3 -5 -2 -6 -10 -3 -9 3 -13 11 -9 18 3
6 0 5 -8 -2 -12 -11 -12 -14 1 -23 13 -9 13 -10 -1 -6 -9 3 -22 0 -29 -6 -10
-9 -11 -9 -5 2 6 10 4 13 -7 8 -9 -3 -21 0 -27 6 -6 6 -11 8 -11 5 0 -4 7 -14
16 -22 14 -15 14 -16 -5 -16 -11 0 -22 -4 -26 -10 -3 -5 -12 -7 -20 -4 -8 4
-12 11 -8 17 3 6 1 7 -6 3 -9 -6 -9 -11 1 -24 12 -13 10 -14 -9 -4 -15 8 -24
9 -28 2 -5 -8 -12 -7 -23 2 -14 10 -15 10 -4 -2 6 -8 12 -20 12 -28 0 -9 -7
-6 -21 9 -11 13 -17 17 -13 9 16 -29 14 -46 -3 -25 -12 15 -14 16 -10 3 7 -21
-18 -45 -29 -27 -4 7 -3 9 4 5 12 -7 10 20 -3 31 -4 4 -5 3 -1 -4 3 -6 2 -14
-3 -18 -6 -3 -7 -13 -4 -22 4 -10 2 -14 -4 -10 -6 4 -14 1 -17 -5 -2 -7 -4 -4
-3 7 2 11 7 27 12 35 8 13 6 13 -8 2 -9 -8 -16 -17 -15 -20 3 -23 -3 -42 -12
-37 -5 3 -10 -2 -10 -12 0 -15 -2 -15 -9 -3 -6 8 -7 18 -4 24 4 5 1 6 -6 2 -7
-5 -10 -15 -7 -23 3 -8 2 -12 -3 -9 -5 3 -12 -1 -15 -10 -3 -8 -10 -12 -16 -9
-5 3 -22 -7 -36 -22 l-27 -28 17 35 c11 23 12 29 3 18 -8 -10 -16 -16 -19 -13
-2 3 -5 -2 -6 -10 -1 -8 -3 -21 -4 -29 -1 -14 -15 -16 -35 -3 -8 5 -11 1 -8
-14 3 -15 1 -18 -8 -11 -17 15 -62 -20 -54 -41 4 -11 2 -14 -8 -10 -8 3 -13 9
-10 13 3 5 1 12 -5 15 -6 4 -10 3 -9 -2 1 -4 0 -19 -1 -33 l-2 -25 -8 25 c-7
22 -8 23 -9 4 -1 -12 -9 -28 -18 -35 -17 -13 -17 -13 -3 6 14 19 14 19 -3 6
-10 -8 -16 -20 -13 -27 3 -8 0 -11 -9 -7 -8 3 -13 8 -10 12 2 4 -2 8 -9 8 -9
0 -13 -11 -12 -29 1 -16 -5 -34 -13 -41 -12 -9 -13 -9 -7 1 4 7 2 12 -6 12
-10 0 -9 3 2 10 8 5 12 11 10 14 -3 2 -16 -5 -30 -17 -16 -12 -18 -18 -7 -14
9 4 17 2 17 -3 0 -6 -6 -10 -14 -10 -8 0 -13 -8 -12 -17 1 -14 -6 -18 -31 -17
-18 0 -30 -2 -28 -6 2 -4 -9 -17 -25 -28 -21 -16 -27 -27 -23 -40 6 -14 4 -15
-9 -5 -15 13 -28 8 -28 -11 0 -6 5 -4 10 4 8 13 10 12 10 -3 0 -9 -9 -25 -19
-34 -11 -9 -18 -20 -15 -25 3 -4 -2 -5 -10 -2 -13 5 -12 9 6 23 15 13 18 20 9
25 -6 4 -10 4 -9 -1 3 -9 -54 -69 -62 -66 -3 1 -6 -10 -7 -25 -1 -15 1 -20 4
-12 11 27 41 61 47 51 3 -5 -1 -12 -10 -15 -8 -3 -12 -11 -8 -17 4 -7 3 -9 -3
-6 -6 4 -13 -3 -16 -15 -6 -22 -6 -22 -27 -3 -20 18 -21 18 -14 0 4 -11 3 -16
-2 -12 -5 3 -10 -6 -11 -21 -2 -26 -2 -26 8 -4 7 19 29 23 29 6 0 -3 -4 -3 -9
0 -5 3 -12 -4 -15 -17 -6 -22 -7 -22 -21 -3 -18 23 -20 14 -4 -17 7 -12 8 -19
4 -15 -12 11 -36 -12 -28 -26 4 -6 0 -5 -9 2 -14 11 -16 10 -11 -7 3 -13 1
-21 -6 -21 -7 0 -10 4 -7 8 3 5 -1 9 -9 9 -12 0 -12 -4 2 -20 10 -11 13 -18 8
-14 -6 3 -17 -8 -24 -24 -7 -16 -17 -26 -23 -23 -6 4 -5 10 3 15 11 7 11 9 1
9 -7 0 -10 5 -6 12 5 7 3 8 -5 4 -7 -5 -10 -11 -7 -14 4 -3 -4 -17 -16 -30
-13 -14 -18 -22 -11 -18 6 3 14 2 18 -4 3 -5 -1 -10 -9 -10 -9 0 -16 -5 -16
-11 0 -5 -6 -7 -12 -3 -7 4 -4 -3 7 -17 13 -15 14 -19 3 -11 -11 9 -18 10 -23
2 -3 -5 -1 -10 5 -10 6 0 9 -4 5 -9 -3 -6 -15 -8 -26 -6 -17 4 -19 2 -9 -10
15 -18 24 -20 14 -3 -5 7 -3 8 6 3 10 -6 8 -13 -11 -28 -13 -10 -23 -21 -21
-23 1 -2 0 -4 -3 -4 -3 0 -10 0 -16 0 -8 0 -7 6 2 18 13 15 12 16 -3 3 -10 -7
-16 -16 -14 -20 3 -4 1 -13 -4 -21 -6 -10 -3 -21 8 -34 9 -11 12 -16 6 -13 -7
4 -14 -3 -18 -19 -4 -15 -9 -24 -12 -22 -2 3 0 18 6 34 9 22 8 26 0 17 -7 -6
-13 -25 -15 -42 -1 -17 -6 -35 -10 -39 -5 -4 -5 -2 -1 5 3 6 2 14 -4 18 -5 3
-10 -3 -10 -15 0 -13 -4 -19 -12 -14 -7 4 -8 3 -4 -5 4 -6 11 -9 16 -6 5 3 12
0 16 -6 4 -7 3 -9 -3 -6 -6 4 -15 -5 -22 -19 -9 -21 -14 -24 -26 -14 -12 10
-13 8 -10 -9 2 -12 7 -26 11 -33 5 -7 3 -8 -6 -3 -10 6 -12 4 -7 -9 5 -11 3
-15 -5 -10 -8 5 -9 2 -5 -9 4 -10 2 -16 -6 -14 -7 1 -11 -9 -10 -26 2 -24 0
-27 -12 -17 -8 7 -12 17 -8 24 3 6 2 7 -2 3 -12 -10 -15 -38 -4 -31 10 6 11 3
13 -40 1 -15 -4 -30 -11 -33 -7 -3 -10 -10 -7 -17 3 -6 -1 -3 -9 7 -14 18 -15
16 -15 -15 0 -50 -1 -55 -18 -72 -9 -10 -11 -16 -4 -16 7 0 5 -7 -5 -16 -13
-13 -13 -19 -3 -32 11 -13 11 -14 -1 -7 -11 6 -13 3 -9 -13 4 -12 3 -20 -2
-17 -4 2 -15 -4 -24 -14 -13 -15 -14 -18 -1 -18 8 0 11 5 8 11 -4 6 1 5 10 -3
20 -16 22 -22 5 -19 -7 2 -12 -2 -13 -9 0 -6 -4 -15 -9 -20 -5 -4 -6 -3 -2 4
3 6 2 14 -3 17 -10 7 -9 -20 2 -30 4 -4 7 -12 7 -18 0 -6 -5 -4 -11 4 -7 11
-9 3 -6 -32 2 -26 0 -45 -4 -42 -5 2 -6 -9 -4 -26 2 -17 0 -28 -5 -25 -5 3 -7
12 -4 19 3 8 0 17 -6 21 -8 5 -5 11 7 21 10 7 13 14 6 14 -7 0 -10 9 -8 21 3
12 1 18 -3 15 -4 -4 -8 -16 -8 -27 -1 -10 -2 -20 -4 -21 -7 -10 -6 -37 1 -32
6 3 8 -5 5 -20 -3 -16 0 -26 7 -26 8 0 8 -3 -1 -9 -8 -5 -11 -21 -9 -44 2 -21
0 -37 -4 -37 -5 0 -9 5 -9 12 0 6 -3 9 -6 5 -3 -3 -2 -12 2 -19 4 -7 9 -28 10
-47 1 -23 -1 -29 -7 -19 -5 8 -7 25 -4 37 2 13 0 19 -6 15 -6 -3 -8 -8 -5 -11
3 -3 1 -15 -5 -26 -8 -14 -8 -18 0 -13 16 10 13 -5 -4 -24 -13 -14 -13 -17 0
-17 8 0 11 5 8 10 -3 6 -1 7 5 3 6 -4 8 -14 5 -23 -5 -12 -3 -14 7 -8 10 6 11
4 4 -6 -5 -8 -9 -25 -9 -39 -1 -14 -6 -25 -12 -25 -6 0 -15 -4 -20 -9 -4 -5
-3 -6 3 -3 15 9 39 -19 24 -28 -6 -3 -8 -11 -5 -16 4 -5 0 -9 -7 -10 -7 0 -4
-4 7 -9 19 -8 19 -9 1 -9 -19 -1 -19 -1 -1 -14 14 -11 15 -16 5 -22 -8 -5 -11
-4 -7 2 3 5 0 10 -8 10 -13 0 -12 -3 1 -18 9 -10 14 -24 12 -31 -3 -7 -1 -25
3 -41 4 -15 4 -25 -1 -22 -4 3 -10 -2 -14 -10 -3 -8 3 -19 12 -24 15 -9 15
-10 -3 -11 -17 0 -17 -2 -5 -10 8 -5 11 -10 5 -10 -5 0 -3 -5 5 -11 12 -9 11
-10 -6 -6 -12 2 -21 -1 -21 -8 0 -7 7 -11 14 -8 8 3 13 2 12 -3 -1 -5 0 -11 1
-14 6 -13 6 -109 0 -105 -4 2 -6 20 -5 39 1 20 -1 33 -5 31 -10 -6 -4 -76 6
-84 13 -9 34 -71 25 -71 -5 0 -13 15 -19 33 -10 28 -11 29 -6 4 3 -16 0 -35
-6 -42 -8 -10 -8 -15 1 -21 7 -4 9 -3 5 4 -3 6 -2 13 4 17 5 3 10 1 10 -5 0
-6 4 -9 8 -6 5 3 8 -14 8 -37 -1 -23 6 -56 15 -74 9 -18 13 -31 9 -28 -4 3
-13 -2 -19 -9 -9 -11 -9 -16 0 -22 8 -4 9 -3 5 4 -4 7 -2 12 5 12 7 0 10 -11
7 -30 -3 -22 -1 -27 7 -20 9 8 11 3 7 -16 -3 -16 -1 -25 5 -21 5 3 9 -6 8 -21
-3 -35 -15 -63 -25 -57 -4 2 -18 -8 -31 -23 l-24 -27 25 20 c25 20 25 20 10 0
-8 -11 -21 -24 -27 -28 -7 -4 -13 -17 -13 -28 0 -11 -5 -17 -10 -14 -6 4 -8
11 -5 16 4 5 1 9 -4 9 -6 0 -11 -4 -11 -10 0 -5 -7 -10 -15 -10 -8 0 -15 5
-15 10 0 6 -5 10 -11 10 -5 0 -8 -4 -5 -9 5 -8 -29 -25 -46 -22 -5 1 -8 -6 -8
-14 0 -13 -4 -14 -22 -4 -13 6 -20 8 -16 4 9 -9 -26 -42 -54 -51 -12 -3 -24
-1 -28 6 -5 9 -10 5 -16 -11 -4 -13 -7 -28 -5 -34 1 -5 -1 -7 -5 -3 -8 8 -73
-28 -89 -49 -5 -7 -21 -15 -34 -18 -12 -2 -29 -9 -37 -16 -11 -9 -18 -8 -31 2
-15 11 -16 11 -5 -1 18 -21 15 -29 -9 -25 -17 3 -19 1 -9 -10 8 -10 8 -15 -1
-21 -7 -4 -9 -3 -5 4 4 7 -1 10 -14 9 -11 -1 -20 -5 -20 -10 0 -5 -7 -6 -16
-3 -9 3 -12 2 -9 -5 4 -6 1 -9 -6 -8 -20 3 -50 -12 -43 -22 3 -5 -2 -6 -10 -3
-10 4 -27 -6 -46 -26 -17 -19 -34 -29 -41 -24 -8 4 -9 3 -5 -4 4 -7 2 -12 -4
-12 -6 0 -9 -4 -5 -9 3 -5 -4 -12 -15 -16 -11 -3 -19 -9 -18 -13 1 -4 -2 -15
-7 -25 -4 -10 -5 -21 -2 -24 4 -3 2 -15 -4 -26 -9 -15 -8 -18 2 -12 9 6 11 3
6 -8 -3 -10 -2 -17 4 -17 6 0 7 -6 3 -12 -6 -10 -4 -10 8 0 13 10 18 10 24 1
4 -8 3 -9 -4 -5 -21 13 -13 -10 10 -30 15 -12 19 -14 13 -4 -6 10 -4 9 6 -2 9
-9 19 -14 23 -11 3 3 8 -2 12 -11 3 -9 10 -16 16 -16 5 0 6 5 2 12 -4 7 -3 8
4 4 6 -4 8 -14 5 -24 -6 -15 -4 -15 9 -4 14 11 16 11 12 -5 -3 -10 4 -29 15
-42 12 -13 21 -28 21 -33 0 -5 5 -6 12 -2 7 4 8 3 4 -4 -9 -14 22 -75 34 -67
5 3 7 -4 5 -15 -3 -13 0 -18 7 -14 7 5 9 0 5 -15 -3 -13 -3 -20 1 -17 3 4 12
-4 19 -16 l14 -23 -7 25 c-8 31 -2 25 19 -18 10 -20 11 -30 4 -26 -7 3 -4 -1
6 -9 12 -10 14 -16 6 -19 -7 -2 -5 -9 7 -18 14 -12 16 -12 9 -1 -5 10 -4 12 4
7 9 -6 9 -11 1 -21 -8 -10 -8 -15 1 -21 8 -4 9 -3 5 4 -4 7 -2 12 3 12 10 0
12 -6 15 -42 1 -7 13 -24 29 -38 22 -21 25 -28 15 -39 -7 -8 -8 -11 -2 -8 6 4
19 -2 29 -13 10 -11 13 -20 7 -20 -6 0 -12 6 -15 13 -3 6 -4 2 -4 -9 1 -15 6
-20 16 -16 9 3 12 1 7 -6 -4 -7 -2 -12 6 -12 9 0 9 -3 -2 -10 -12 -8 -10 -10
10 -11 23 0 23 -1 5 -9 l-20 -9 20 -1 c11 -1 14 -4 8 -7 -7 -2 -13 -9 -13 -14
0 -6 4 -8 8 -5 5 3 9 -1 9 -9 0 -8 -4 -12 -8 -9 -4 2 -10 0 -14 -6 -3 -5 0
-10 7 -10 9 0 9 -3 -2 -10 -12 -8 -12 -10 5 -10 15 0 17 -2 6 -9 -11 -7 -11
-9 0 -14 11 -4 11 -6 1 -6 -10 -1 -10 -5 2 -17 9 -8 14 -20 11 -24 -3 -5 5
-14 17 -20 21 -10 21 -10 6 3 -10 8 -15 17 -11 20 3 4 17 -8 30 -25 12 -18 23
-27 23 -22 0 6 7 11 15 11 8 0 15 -5 15 -10 0 -5 7 -4 15 3 12 10 15 10 15 0
0 -7 7 -4 18 7 9 10 13 13 8 6 -6 -10 -4 -12 8 -7 9 3 16 10 16 16 0 5 4 6 10
3 5 -3 17 3 27 15 10 11 29 20 43 20 15 0 20 3 13 8 -9 6 -6 11 8 21 12 7 18
8 14 2 -11 -19 3 -12 26 12 12 12 19 16 15 10 -9 -16 20 -17 30 -1 5 7 2 8 -7
3 -11 -6 -11 -5 -3 5 7 6 23 13 37 13 18 2 24 7 21 20 -2 15 0 16 10 8 10 -9
15 -8 20 4 3 9 10 13 16 10 5 -3 10 -1 10 4 0 6 4 10 9 8 5 -1 23 10 40 26 17
15 31 24 31 21 0 -4 7 0 17 7 9 8 18 13 20 12 11 -8 23 -1 23 15 0 14 2 15 10
2 9 -14 14 -7 11 13 -1 4 4 7 11 6 22 -4 48 12 41 25 -4 6 2 4 13 -4 10 -8 16
-11 12 -6 -10 12 34 58 45 47 14 -14 48 6 41 24 -4 8 -11 12 -17 8 -6 -3 -7
-1 -3 5 5 9 13 9 29 0 20 -10 21 -10 9 5 -12 14 -11 16 7 12 13 -2 21 1 21 10
0 8 5 17 12 21 7 5 8 3 3 -6 -6 -10 -4 -12 9 -7 10 4 21 7 24 7 4 0 0 5 -8 10
-9 6 -10 10 -3 10 6 0 14 -4 18 -10 3 -5 12 -7 20 -3 14 5 20 -7 16 -30 -1 -5
3 -6 9 -2 6 3 7 12 4 18 -5 8 -3 8 7 0 25 -25 32 -13 8 15 l-24 27 28 -25 c15
-13 25 -30 22 -38 -3 -8 0 -10 8 -5 25 15 34 11 29 -16 l-6 -26 -7 25 c-7 23
-7 22 -6 -7 1 -30 3 -31 18 -17 16 14 19 13 34 -10 10 -14 21 -24 25 -21 13 8
31 -22 34 -54 1 -17 5 -33 9 -37 3 -4 5 3 2 14 -2 11 2 23 9 25 9 4 12 -4 11
-24 -1 -17 3 -33 8 -36 6 -3 7 -1 4 4 -4 6 0 16 8 23 13 11 14 10 9 -5 -5 -12
-4 -16 4 -11 6 3 13 2 17 -4 4 -6 10 -8 15 -5 5 3 14 -5 20 -17 9 -20 9 -21
-2 -7 -7 9 -21 15 -31 13 -10 -1 -14 2 -11 8 5 7 2 8 -5 4 -7 -5 -9 -11 -6
-15 6 -6 11 -7 36 -10 8 -1 7 -7 -2 -18 -12 -16 -12 -17 2 -6 9 7 19 10 23 6
4 -4 11 -1 16 7 8 12 10 10 11 -10 1 -14 1 -29 0 -33 -1 -5 3 -6 8 -3 5 4 11
3 14 -1 2 -5 2 -2 1 5 -2 6 1 12 7 12 6 0 7 5 3 12 -4 7 -3 8 4 4 6 -4 8 -14
5 -23 -4 -10 -2 -14 4 -10 6 4 19 0 27 -9 9 -8 16 -12 16 -8 0 3 6 1 13 -5 8
-6 18 -7 22 -3 5 4 5 2 2 -4 -7 -12 16 -38 25 -29 8 8 27 -19 32 -46 2 -13 9
-23 15 -22 6 2 11 -3 11 -10 0 -8 4 -7 10 3 6 10 10 11 10 3 0 -7 5 -13 11
-13 5 0 8 4 5 8 -3 5 1 9 9 9 8 0 13 -3 10 -5 -8 -8 48 -33 61 -28 9 3 11 -1
7 -12 -3 -9 -3 -14 2 -10 4 4 14 3 22 -3 7 -6 13 -8 13 -4 0 5 9 0 21 -11 12
-10 24 -18 27 -16 4 2 8 -2 10 -10 2 -9 0 -8 -7 2 -10 13 -11 13 -11 0 -1 -11
-4 -10 -15 4 -8 11 -15 15 -15 9 0 -17 37 -46 45 -33 3 5 11 7 17 4 6 -4 8 -3
5 2 -3 5 3 10 13 10 11 0 17 -2 15 -4 -8 -8 26 -63 35 -57 6 4 10 1 10 -6 0
-7 7 -4 16 7 8 10 13 13 9 6 -7 -13 20 -13 42 1 7 5 10 -1 9 -16 -2 -13 2 -24
8 -24 25 -1 41 -9 49 -23 5 -10 6 -8 3 7 -2 13 0 26 5 29 5 3 8 0 7 -8 -2 -7
3 -12 10 -11 6 2 12 -1 12 -5 0 -4 -6 -14 -12 -22 -11 -12 -10 -12 4 -1 13 10
18 9 26 -5 8 -15 10 -15 15 0 4 9 2 15 -5 13 -6 -1 -13 5 -15 13 -4 13 -3 13
6 0 6 -8 11 -11 11 -6 0 5 6 4 13 -3 10 -8 17 -7 26 2 10 9 10 7 0 -10 -9 -16
-16 -19 -21 -10 -5 7 -8 8 -8 1 0 -21 14 -24 33 -7 20 17 20 17 13 -1 -6 -17
-5 -17 11 -5 15 12 16 12 10 -3 -3 -10 -1 -20 5 -24 7 -4 8 -3 4 4 -4 7 -2 12
4 12 6 0 9 4 6 8 -3 5 1 9 9 9 11 0 12 -5 3 -21 l-11 -21 23 20 23 20 -13 -25
c-7 -14 -9 -22 -5 -17 5 4 18 -1 29 -10 20 -17 20 -17 6 1 -14 18 -13 19 8 14
18 -5 21 -4 13 6 -8 9 -7 13 2 13 8 0 14 -6 15 -14 1 -7 3 -20 4 -28 1 -11 5
-12 15 -4 9 9 13 8 13 0 0 -8 4 -8 14 1 8 7 11 18 8 23 -3 6 2 4 12 -4 9 -8
15 -20 12 -26 -3 -9 6 -12 30 -9 19 2 32 -1 29 -6 -8 -12 34 -4 51 11 11 9 15
8 20 -5 3 -9 10 -16 16 -16 5 0 6 6 2 13 -5 8 -3 8 9 -2 9 -7 15 -16 13 -20
-3 -4 6 -7 19 -7 16 0 21 4 17 16 -3 8 -2 12 3 8 4 -4 14 -3 22 4 8 6 13 7 12
2 -1 -5 -1 -16 1 -24 1 -11 4 -9 10 5 8 19 9 19 9 1 1 -20 1 -20 15 0 14 18
15 18 21 2 4 -10 11 -15 16 -12 5 3 7 9 5 13 -3 4 6 7 19 7 15 0 21 -4 18 -14
-4 -10 -8 -11 -13 -2 -5 9 -9 9 -14 1 -4 -6 -4 -11 1 -12 44 -5 61 -4 57 3 -3
4 -10 6 -15 3 -15 -10 -10 1 7 15 8 8 14 9 12 4 -3 -8 6 -16 15 -13 23 7 36 5
30 -4 -13 -20 -11 -34 3 -34 9 0 11 4 4 12 -7 9 9 11 66 10 41 -1 78 3 81 8 3
6 2 7 -4 4 -5 -3 -10 0 -10 8 0 11 4 12 14 4 7 -6 11 -14 9 -18 -3 -4 0 -13 6
-21 8 -12 9 -12 4 3 -3 9 0 17 6 17 6 0 5 7 -3 18 -13 15 -12 16 3 4 9 -7 15
-21 13 -31 -2 -10 3 -18 11 -18 10 0 11 4 4 12 -15 18 63 13 86 -5 17 -14 18
-13 7 1 -7 9 -11 18 -8 21 3 3 -13 4 -35 3 -22 -1 -43 2 -46 7 -3 5 -2 8 3 7
4 -1 10 0 13 1 16 7 61 6 66 -2 3 -4 10 -8 15 -8 6 0 7 5 3 12 -4 7 -3 8 4 4
7 -4 12 -15 13 -24 1 -11 4 -8 9 8 4 14 8 18 9 10 1 -11 12 -16 35 -16 19 0
33 3 30 7 -5 9 18 26 34 23 6 -1 19 -2 28 -3 8 0 13 -5 10 -9 -3 -5 1 -9 8 -9
7 0 13 6 13 13 0 7 -5 10 -10 7 -6 -3 -7 -1 -4 5 4 5 15 9 25 8 9 -2 21 2 25
8 6 7 7 6 4 -4 -2 -8 -9 -14 -14 -13 -5 1 -10 -5 -10 -12 0 -10 4 -12 12 -5 7
5 16 6 20 2 5 -4 5 -1 1 6 -6 10 -1 12 22 9 26 -4 29 -2 24 16 -5 19 -4 19 10
6 9 -7 13 -18 10 -24 -3 -5 1 -4 10 2 8 7 19 9 23 5 5 -4 4 -1 0 7 -6 11 -4
13 10 7 14 -5 16 -4 7 7 -12 14 -6 27 12 27 6 0 4 -5 -4 -10 -12 -8 -11 -10 7
-10 17 0 21 4 17 18 -5 14 -4 14 4 2 12 -16 60 -22 68 -8 3 4 9 6 14 3 5 -3 7
3 5 14 -2 14 1 18 11 14 7 -3 11 -10 7 -17 -4 -6 1 -5 10 3 19 15 22 22 8 18
-8 -2 -11 3 -11 20 0 3 12 -4 27 -18 14 -13 23 -19 19 -12 -3 7 2 14 14 18 11
3 20 14 21 23 0 14 2 13 8 -3 5 -11 6 -24 3 -30 -3 -5 2 -4 11 4 18 15 23 26
7 16 -5 -3 -10 1 -10 10 0 10 5 13 12 9 8 -5 9 -1 5 12 -7 18 -7 18 8 0 8 -11
15 -16 15 -11 0 4 10 0 22 -11 14 -12 18 -13 10 -3 -6 9 -8 20 -4 24 4 5 2 5
-5 1 -6 -3 -15 -1 -19 6 -4 7 -4 10 1 6 4 -4 14 -3 22 3 7 6 13 8 13 3 0 -5 5
-2 11 6 9 13 10 13 6 0 -2 -8 -9 -14 -15 -13 -6 2 -9 -4 -5 -13 5 -12 9 -11
22 10 15 23 18 24 29 8 10 -15 11 -15 5 2 -4 13 -3 17 5 12 7 -4 12 -2 12 6 0
9 3 9 10 -2 8 -13 10 -12 11 5 1 11 1 24 0 28 -1 5 3 6 9 2 6 -3 8 -11 5 -16
-4 -5 -2 -9 3 -9 17 0 22 13 9 28 -10 13 -9 14 1 8 7 -4 19 -2 27 4 8 7 15 9
15 4 0 -5 5 -2 11 6 9 13 10 13 6 0 -2 -8 -9 -15 -14 -15 -6 0 -14 -3 -18 -7
-9 -8 16 -5 32 5 6 4 14 1 16 -5 4 -10 6 -9 6 1 1 11 4 11 19 0 15 -12 16 -12
6 1 -9 13 -10 22 -5 47 0 3 9 -1 19 -10 15 -14 19 -15 19 -2 0 8 -4 12 -9 9
-4 -3 -8 0 -8 5 0 17 18 13 30 -6 9 -15 10 -14 4 7 -6 21 -5 23 8 13 16 -14
38 0 38 24 0 7 10 18 23 25 28 15 49 19 41 7 -3 -5 -10 -6 -16 -3 -7 4 -8 2
-4 -4 13 -21 38 -1 32 27 -3 14 -3 20 0 13 5 -10 12 -8 30 9 13 12 24 19 24
14 0 -5 6 0 14 11 8 10 19 20 25 20 6 1 16 2 22 3 5 0 7 6 3 13 -4 6 -3 8 4 4
5 -3 13 0 16 6 2 7 3 2 1 -12 -1 -14 -8 -24 -15 -22 -7 1 -18 -3 -26 -9 -8 -6
-14 -8 -14 -3 0 5 -5 1 -11 -9 -6 -9 -15 -14 -21 -11 -7 5 -8 2 -3 -6 6 -9 4
-11 -5 -5 -9 6 -11 4 -5 -5 6 -9 4 -11 -5 -5 -9 6 -11 4 -5 -5 5 -8 4 -11 -2
-7 -5 3 -10 0 -10 -7 0 -7 6 -13 14 -13 7 0 11 3 8 5 -3 3 2 14 11 24 14 15
20 16 33 5 14 -11 15 -10 1 7 -14 18 -13 19 2 13 11 -4 17 -2 15 5 -1 6 4 13
12 16 8 2 11 0 8 -5 -3 -5 0 -10 8 -10 8 0 12 4 9 8 -2 4 0 10 6 14 6 4 8 11
5 16 -4 5 -1 10 4 10 12 2 26 5 39 9 4 1 11 2 15 1 5 -1 6 3 3 8 -3 5 0 14 8
20 8 7 17 24 21 39 l7 27 13 -24 12 -24 12 36 c7 21 17 37 22 37 6 0 8 4 5 9
-8 13 21 34 35 25 9 -5 10 -2 6 9 -3 9 -3 16 1 16 20 -3 32 2 27 11 -4 6 -11
7 -17 4 -7 -4 -8 -2 -4 4 4 6 14 8 23 5 10 -4 14 -2 9 5 -3 6 -1 14 5 18 7 4
9 3 6 -3 -4 -6 0 -14 9 -17 8 -3 13 -10 10 -14 -3 -5 1 -9 9 -9 11 0 12 4 4
13 -7 8 -7 14 0 18 6 4 8 13 5 20 -3 8 0 17 7 22 7 4 10 3 6 -2 -3 -6 -2 -16
2 -23 5 -7 8 0 9 19 1 38 12 53 13 19 1 -13 0 -28 -1 -34 -1 -5 2 -7 6 -3 4 5
9 23 10 40 5 50 7 58 13 52 10 -9 8 -28 -4 -36 -5 -4 0 -6 12 -5 12 0 19 6 15
12 -13 21 -11 43 5 56 9 8 14 9 10 3 -4 -7 0 -15 9 -18 8 -3 13 -2 9 3 -3 5 1
12 7 14 10 4 10 6 1 6 -7 1 -13 5 -13 11 0 5 6 7 14 4 8 -3 17 0 21 5 3 6 9 9
13 7 4 -2 7 9 8 25 1 16 11 40 23 53 12 12 18 26 14 31 -5 4 2 2 15 -4 12 -7
21 -8 20 -4 -2 4 1 8 7 8 5 0 9 -4 7 -8 -1 -5 2 -6 8 -2 7 4 7 12 2 18 -15 21
-8 42 15 41 15 -1 20 3 16 13 -5 12 -7 12 -14 1 -6 -9 -9 -9 -9 -1 0 6 5 15
10 18 6 3 10 18 10 32 0 33 7 27 12 -9 2 -15 7 -30 10 -34 4 -3 4 8 2 25 -6
35 12 75 28 65 7 -5 9 2 6 18 -3 14 0 25 7 25 6 0 10 -13 8 -31 l-2 -31 8 30
c4 17 3 35 -2 42 -11 16 1 36 16 26 16 -10 37 -13 36 -5 -3 20 2 32 11 27 6
-4 7 1 3 11 -5 14 -9 12 -21 -11 -10 -21 -16 -24 -22 -14 -11 16 -2 32 12 23
8 -5 9 -1 5 10 -4 9 -3 14 2 11 5 -3 13 -1 16 5 5 8 12 7 23 -2 14 -10 15 -10
6 0 -12 14 -7 65 6 57 4 -3 13 2 20 10 7 8 17 12 24 8 6 -4 6 -1 -2 9 -10 12
-10 18 2 27 8 7 12 20 9 28 -5 12 -3 14 8 8 11 -7 11 -5 -1 10 -8 10 -15 19
-14 19 0 1 6 11 13 24 7 13 17 20 24 15 9 -5 9 -3 1 8 -13 16 -15 51 -3 43 5
-2 6 -12 3 -22 -5 -14 -4 -14 4 -2 6 8 9 17 6 21 -2 4 0 11 6 14 7 4 7 11 2
18 -5 7 -4 22 4 37 8 15 14 19 14 10 0 -9 -6 -22 -12 -30 -11 -12 -10 -12 3
-2 9 6 18 10 20 8 2 -3 3 13 1 35 -3 23 0 39 6 39 6 0 9 -9 7 -20 -2 -11 0
-22 4 -24 10 -7 8 35 -3 53 -6 10 -5 12 2 7 7 -4 12 -2 12 4 0 6 4 9 9 5 5 -3
12 -1 15 4 3 5 -8 7 -24 6 -16 -1 -27 1 -24 6 3 5 9 7 14 4 5 -3 11 -1 15 5 4
6 10 8 13 6 4 -2 7 8 6 22 -1 15 -3 27 -4 27 -9 0 -5 37 4 44 9 8 13 7 13 -4
0 -8 -3 -12 -7 -10 -4 2 -7 -2 -7 -10 0 -10 4 -12 12 -5 7 5 16 6 21 2 4 -4 2
1 -5 11 -7 9 -10 17 -6 17 5 0 0 10 -11 22 -10 12 -14 18 -7 15 6 -4 13 -4 16
0 2 5 2 1 0 -7 -3 -11 -1 -12 8 -3 6 6 8 17 3 25 -13 20 -14 39 -2 32 6 -4 8
2 3 16 -8 24 9 66 35 88 13 11 13 11 -1 7 -10 -4 -16 0 -16 9 0 8 4 13 9 10 4
-3 9 10 9 28 2 40 6 108 8 126 2 17 18 15 18 -3 0 -8 -3 -12 -7 -10 -3 2 -6
-6 -7 -18 0 -12 1 -16 4 -9 3 6 8 10 12 7 9 -5 8 41 -1 50 -4 4 -4 14 -1 23 4
10 2 13 -5 8 -8 -5 -10 -2 -6 9 6 14 7 14 18 0 9 -12 11 -6 10 30 -1 25 -5 49
-9 53 -5 4 -5 0 0 -8 5 -9 5 -12 -1 -7 -5 5 -9 12 -9 15 0 4 -4 13 -9 21 -6 9
-5 12 1 8 6 -4 14 0 17 9 8 22 8 26 -4 19 -15 -9 -12 2 6 19 14 15 14 16 -3
17 -16 0 -16 1 2 9 11 5 15 9 10 9 -12 1 -13 41 -2 58 4 7 4 14 -1 17 -7 4 -7
49 -1 199 0 10 5 15 11 11 7 -4 8 -2 4 4 -4 7 -13 12 -21 12 -8 0 -17 5 -21
12 -4 7 -3 8 4 4 8 -5 10 5 5 36 -4 24 -6 55 -6 70 0 17 -3 25 -10 21 -12 -7
-1 14 20 38 11 13 11 16 -2 16 -8 0 -11 -5 -8 -10 3 -6 1 -7 -6 -3 -9 6 -9 11
-1 21 8 10 8 15 -1 21 -8 5 -9 3 -4 -6 5 -8 4 -11 -3 -6 -6 4 -9 13 -6 20 3 8
1 17 -5 20 -6 4 -7 14 -4 23 5 12 3 14 -8 8 -11 -6 -12 -5 -1 6 14 16 16 33 2
24 -16 -10 -11 1 7 16 10 8 14 9 10 2 -4 -6 -2 -15 4 -19 8 -4 7 -9 -2 -15
-10 -6 -10 -9 -2 -9 16 0 26 17 13 25 -6 4 -8 10 -5 15 3 5 1 11 -5 15 -6 4
-7 11 -4 17 4 7 2 8 -4 4 -12 -7 -15 5 -14 49 1 17 0 17 -4 3 -3 -10 -9 -18
-14 -18 -9 0 -8 19 2 35 3 6 2 19 -3 30 -4 11 -8 14 -8 6 -1 -8 -4 -12 -7 -8
-3 3 -2 12 2 19 12 19 14 39 3 32 -5 -3 -6 -11 -2 -17 4 -7 0 -6 -10 2 -18 14
-23 26 -8 16 5 -3 12 3 16 14 3 11 13 25 22 33 12 9 15 9 9 1 -4 -8 -1 -13 9
-13 10 0 13 5 9 13 -5 7 -2 7 10 -2 15 -12 17 -12 14 0 -2 8 3 13 12 11 8 -2
12 -1 8 3 -8 8 14 35 24 29 4 -3 5 5 3 17 -3 17 -2 19 10 9 11 -9 16 -7 25 11
10 17 14 19 21 8 8 -13 13 -5 10 15 -1 5 4 4 12 -3 9 -7 16 -8 19 -2 3 9 52
22 86 24 11 0 16 11 13 30 -1 4 8 3 19 -3 17 -9 19 -8 13 7 -3 10 -2 15 2 11
5 -5 14 1 21 11 9 13 21 17 40 13 19 -3 25 -1 20 7 -4 7 0 11 11 11 15 0 16 2
3 11 -12 9 -11 10 8 6 15 -4 22 0 22 10 0 8 -5 11 -12 7 -7 -4 -4 2 6 14 24
27 26 27 21 1 -3 -12 -1 -19 2 -15 4 4 8 17 10 29 2 12 9 27 16 32 20 16 63
90 46 80 -11 -7 -11 -6 1 10 8 10 14 28 12 39 -2 18 -1 19 8 6 10 -12 11 -11
7 8 -3 13 0 22 6 22 7 0 5 5 -3 10 -10 6 -11 10 -2 10 13 0 12 21 -2 31 -5 4
-5 13 0 20 4 7 8 36 8 64 1 37 -4 54 -17 63 -9 7 -15 17 -12 22 3 5 -1 22 -9
38 -8 16 -12 32 -9 36 4 3 2 6 -4 6 -6 0 -10 10 -9 22 1 14 -5 23 -14 23 -8 0
-16 10 -18 23 -4 23 -22 31 -22 10 0 -7 -8 -1 -18 15 -10 15 -22 24 -27 20 -4
-5 -5 1 -1 11 5 15 4 17 -8 7 -9 -7 -17 -8 -20 -2 -3 5 0 12 6 15 7 4 3 4 -9
2 -13 -2 -26 0 -29 5 -3 5 -14 9 -24 9 -11 0 -24 10 -30 23 -10 20 -10 20 3 5
21 -26 32 -22 15 5 -9 12 -14 37 -12 55 2 20 -4 49 -16 72 -11 22 -17 40 -13
40 5 0 4 4 -2 8 -5 4 -17 16 -25 26 -13 18 -13 19 0 11 8 -4 5 3 -7 16 -21 23
-23 27 -23 50 0 5 -4 7 -10 4 -5 -3 -10 3 -10 14 0 12 -6 21 -12 21 -9 0 -8 4
2 11 12 9 11 10 -7 6 -16 -4 -20 -1 -16 11 5 11 3 13 -8 7 -12 -7 -12 -6 0 9
13 16 13 17 0 15 -7 -2 -29 5 -48 15 -18 10 -30 13 -27 7 4 -6 3 -11 -3 -11
-5 0 -13 5 -16 10 -5 8 -11 7 -20 0 -8 -7 -18 -10 -22 -7 -17 10 -53 -13 -53
-33 0 -12 -4 -18 -10 -15 -5 3 -10 1 -10 -6 0 -7 -10 -9 -25 -7 -14 3 -23 1
-22 -6 1 -6 -6 -10 -17 -8 -12 2 -16 -1 -10 -9 5 -9 2 -10 -9 -6 -10 3 -17 2
-17 -4 0 -6 -4 -7 -10 -4 -5 3 -10 1 -10 -6 0 -7 -11 -10 -30 -7 -23 3 -27 2
-19 -8 7 -8 6 -14 -2 -20 -8 -4 -9 -3 -5 4 4 7 3 12 -2 12 -6 0 -13 -7 -16
-16 -3 -8 -10 -12 -16 -9 -5 3 -10 2 -10 -3 0 -5 -7 -9 -15 -10 -8 -1 -21 -3
-29 -4 -8 -1 -11 -9 -8 -22 5 -20 5 -20 -12 -3 -22 22 -22 22 -22 -10 1 -16
-5 -29 -11 -29 -7 -1 -15 -3 -18 -4 -3 -1 -9 -3 -14 -4 -5 0 -13 -5 -18 -10
-4 -5 -3 -6 4 -2 6 3 14 2 18 -4 3 -5 0 -10 -8 -10 -17 0 -49 -34 -45 -48 2
-6 -6 -18 -17 -27 -19 -15 -19 -16 -1 -11 16 6 17 4 6 -9 -7 -8 -17 -12 -22
-9 -6 4 -5 -4 2 -16 10 -18 9 -21 -1 -15 -9 6 -11 3 -6 -8 3 -9 2 -27 -4 -39
-9 -23 -10 -23 -5 -1 2 13 -2 24 -11 27 -11 5 -13 1 -8 -17 7 -22 7 -22 -10 2
-14 18 -19 20 -27 10 -7 -11 -8 -10 -6 4 2 14 -8 23 -37 33 -22 9 -45 16 -52
16 -6 1 -10 10 -8 21 4 16 2 17 -12 5 -10 -8 -14 -8 -10 -1 4 6 3 14 -3 18 -5
3 -10 0 -10 -7 -1 -7 -7 -2 -15 12 -7 14 -26 32 -40 40 -15 8 -31 25 -36 38
-6 15 -13 21 -21 16 -10 -6 -10 -4 0 8 10 13 10 18 1 24 -7 4 -9 3 -6 -3 4 -6
1 -13 -6 -16 -10 -4 -13 2 -10 21 3 24 2 25 -7 7 -9 -18 -10 -17 -7 8 5 33 0
35 -13 5 -9 -20 -10 -19 -7 9 2 18 0 30 -5 27 -4 -3 -8 -12 -8 -20 0 -8 -5
-12 -10 -9 -6 4 -8 10 -5 15 3 5 1 12 -5 15 -8 5 -7 12 2 23 12 15 11 16 -5 3
-13 -10 -15 -17 -6 -27 8 -10 8 -14 0 -14 -6 0 -11 5 -11 11 0 5 -4 8 -8 5 -4
-3 -7 9 -6 25 2 25 0 28 -12 18 -16 -13 -19 -23 -4 -14 6 3 10 1 10 -4 0 -14
-17 -14 -25 -1 -4 6 -11 7 -17 4 -7 -5 -8 -2 -3 6 6 10 4 12 -11 6 -10 -4 -15
-4 -11 0 3 4 -2 19 -13 34 -11 15 -17 29 -15 32 3 2 -7 15 -22 29 -15 13 -22
17 -16 9 13 -17 6 -33 -16 -38 -12 -3 -12 0 -2 12 8 10 9 16 1 21 -6 3 -7 11
-4 17 4 6 2 8 -4 4 -5 -3 -12 -1 -14 6 -3 7 -7 5 -11 -6 -5 -11 -3 -15 5 -10
7 5 8 3 3 -6 -5 -8 -4 -11 3 -6 6 3 13 2 16 -3 4 -5 -1 -8 -9 -7 -22 3 -78 54
-71 64 3 5 -1 9 -9 9 -8 0 -15 -4 -15 -9 0 -4 -5 -8 -11 -8 -6 0 -8 7 -5 16 6
15 4 15 -11 3 -15 -12 -16 -12 -10 3 3 10 2 20 -4 23 -5 4 -7 12 -3 18 3 7 -4
1 -15 -12 -14 -15 -21 -18 -21 -9 0 8 3 18 8 24 4 5 -1 1 -10 -9 -10 -11 -18
-14 -18 -8 0 6 -5 10 -11 8 -6 -1 -14 5 -16 13 -4 13 -3 13 6 0 8 -12 10 -11
8 7 -1 20 -3 21 -18 7 -12 -10 -19 -12 -24 -4 -3 5 -10 8 -15 5 -4 -3 -14 3
-21 12 -12 14 -12 16 0 8 10 -5 12 -4 7 4 -6 9 -11 9 -21 1 -15 -13 -41 13
-29 31 4 7 3 9 -4 5 -5 -3 -13 0 -16 6 -3 7 -4 2 -1 -12 3 -14 2 -19 -1 -12
-3 6 -10 10 -14 7 -5 -3 -7 3 -5 15 2 11 -1 23 -7 26 -6 4 -8 3 -5 -3 4 -6 1
-16 -7 -22 -11 -9 -13 -6 -11 14 3 21 0 23 -15 15 -9 -5 -21 -6 -25 -2 -5 4
-5 2 -1 -5 4 -7 12 -11 19 -9 7 1 9 1 4 -1 -4 -3 -4 -10 0 -16 3 -7 -3 -4 -14
6 -11 9 -23 14 -28 10 -4 -5 -2 3 5 17 13 25 13 25 -8 7 -13 -12 -22 -15 -27
-7 -3 5 -11 7 -17 4 -7 -5 -8 -2 -3 6 6 10 4 12 -9 7 -10 -4 -15 -3 -11 3 4 7
-3 9 -19 6 -14 -3 -28 0 -32 5 -3 5 -10 6 -16 3 -7 -4 -8 -2 -4 5 4 6 11 9 15
7 4 -3 8 1 8 9 0 10 -4 12 -12 5 -7 -5 -15 -7 -18 -3 -4 3 -7 0 -8 -8 0 -8 -5
-3 -10 11 -10 24 -11 24 -24 7 -12 -17 -13 -17 -17 -1 -2 11 -13 18 -29 18
-15 1 -26 -3 -24 -9 1 -5 0 -7 -2 -3 -2 4 -10 5 -18 2 -8 -3 -22 3 -31 15 -13
15 -22 17 -35 10 -11 -6 -20 -5 -24 1 -4 6 -13 7 -24 1 -9 -5 -23 -6 -31 -1
-7 4 -22 7 -32 5 -10 -2 -16 0 -13 5 3 6 1 18 -4 27 -7 12 -10 14 -11 4 0 -11
-3 -11 -15 -1 -12 10 -16 8 -24 -11 -7 -18 -10 -19 -10 -6 -1 9 -8 17 -16 17
-25 0 -29 1 -41 11 -7 5 -11 4 -11 -5 0 -8 8 -13 19 -11 10 2 16 0 13 -5 -3
-4 -13 -7 -23 -5 -9 2 -20 4 -24 4 -5 1 -7 4 -5 9 1 4 -2 7 -8 7 -5 0 -9 -3
-7 -8 1 -4 -17 -6 -40 -4 -23 2 -44 9 -46 16 -3 8 -8 6 -18 -6 -12 -15 -13
-15 -8 -2 3 10 0 20 -7 25 -8 4 -10 3 -5 -4 4 -7 4 -12 -1 -13 -45 -5 -65 -4
-70 4 -3 5 -9 3 -14 -4 -6 -10 -9 -10 -9 -2 0 9 -7 10 -24 3 -17 -6 -29 -5
-42 5 -17 12 -22 11 -44 -8 -13 -12 -19 -15 -12 -6 10 14 10 18 -3 23 -9 3
-14 2 -11 -3 3 -5 -1 -12 -10 -15 -8 -3 -13 -2 -10 2 3 5 -1 9 -9 9 -8 0 -12
-4 -10 -8 3 -4 -2 -9 -9 -12 -16 -6 -40 16 -29 26 3 4 4 7 1 7 -2 0 -7 -3 -11
-6z m148 -13 c3 -5 2 -12 -3 -15 -5 -3 -9 1 -9 9 0 17 3 19 12 6z m451 -23 c5
4 5 3 1 -2 -12 -15 -34 -15 -34 0 0 9 4 11 12 4 7 -5 16 -6 21 -2z m-1003 -53
c-3 -9 -8 -14 -10 -11 -3 3 -2 9 2 15 9 16 15 13 8 -4z m-60 -10 c-3 -9 -8
-14 -10 -11 -3 3 -2 9 2 15 9 16 15 13 8 -4z m-377 -147 c4 -7 3 -8 -4 -4 -7
4 -12 2 -12 -5 0 -7 -3 -10 -6 -6 -6 5 3 27 11 27 2 0 7 -5 11 -12z m2239 -57
c3 -5 1 -12 -5 -16 -5 -3 -10 1 -10 9 0 18 6 21 15 7z m200 -121 c-3 -5 -1
-11 5 -15 5 -3 10 -11 10 -18 0 -15 -29 25 -30 41 0 7 5 10 10 7 6 -4 8 -10 5
-15z m1035 10 c0 -5 -2 -10 -4 -10 -3 0 -8 5 -11 10 -3 6 -1 10 4 10 6 0 11
-4 11 -10z m-3848 -47 c-6 -3 -10 -8 -8 -12 3 -4 -1 -8 -9 -8 -13 0 -12 4 2
19 9 10 19 15 22 12 3 -4 0 -9 -7 -11z m1261 -63 c-3 -12 -8 -19 -11 -16 -5 6
5 36 12 36 2 0 2 -9 -1 -20z m-26 -5 c4 -4 3 -5 -4 -2 -6 4 -13 2 -15 -5 -3
-8 -6 -6 -10 4 -7 17 15 19 29 3z m67 3 c-3 -5 -10 -6 -15 -3 -15 10 -10 -2 8
-16 12 -10 15 -11 9 -1 -6 9 -1 11 19 8 19 -4 25 -1 22 8 -3 7 1 13 8 13 7 0
11 -5 9 -12 -3 -6 6 -11 21 -11 15 0 24 5 21 11 -2 7 2 12 9 12 7 0 11 -6 8
-13 -3 -9 3 -12 22 -8 20 3 25 1 19 -8 -5 -10 -4 -11 7 0 7 6 17 12 22 12 4 0
5 -6 1 -12 -6 -10 -4 -10 7 0 16 15 33 16 23 0 -4 -7 -3 -8 5 -4 8 6 9 12 2
20 -8 9 -7 13 4 13 8 0 12 -4 9 -8 -2 -4 0 -10 6 -14 5 -3 11 2 11 12 1 17 2
17 6 1 3 -12 15 -18 36 -19 18 0 42 -2 55 -5 13 -2 21 0 17 5 -3 5 -1 12 4 15
5 4 8 -5 7 -19 -2 -13 1 -22 5 -19 5 3 9 13 10 22 0 14 2 13 9 -3 l9 -20 1 20
1 20 9 -20 9 -20 1 20 1 20 9 -20 c5 -11 9 -15 9 -8 1 9 46 12 69 4 1 -1 5 -1
10 -2 4 0 13 -5 20 -11 6 -6 12 -7 12 -3 0 5 8 1 18 -8 14 -13 21 -14 30 -5 9
9 13 7 18 -6 5 -13 9 -14 20 -5 11 9 16 6 23 -14 10 -24 32 -30 48 -12 4 4 3
5 -3 2 -6 -3 -11 0 -11 8 0 11 4 12 14 4 7 -6 13 -8 13 -4 0 4 6 2 13 -4 8 -6
16 -9 19 -6 2 3 5 -2 5 -10 0 -18 -2 -19 -20 -1 -11 12 -15 11 -25 -5 -9 -13
-9 -20 0 -25 6 -4 8 -3 4 4 -11 18 11 23 28 6 12 -11 16 -12 16 -2 1 8 6 6 15
-6 8 -10 12 -23 8 -29 -3 -6 -1 -7 5 -3 9 5 9 13 2 26 -11 20 3 39 15 20 4 -6
10 -8 15 -5 5 3 11 1 15 -5 4 -6 11 -7 17 -4 7 4 8 2 4 -4 -4 -7 -2 -12 5 -12
7 0 9 -3 6 -6 -4 -4 -13 -2 -20 4 -8 7 -18 8 -22 4 -5 -4 -5 -2 -2 4 3 6 0 11
-8 11 -10 0 -12 -4 -5 -12 5 -7 8 -15 5 -19 -3 -3 0 -2 6 3 8 6 20 4 36 -6 13
-9 23 -12 22 -7 -4 26 4 35 10 10 3 -17 13 -30 24 -32 10 -1 14 2 11 8 -4 7
-2 8 4 4 7 -4 12 -2 12 5 0 7 6 4 14 -6 8 -11 12 -24 9 -30 -2 -5 3 -1 11 9
12 15 16 16 16 5 0 -8 -6 -21 -12 -29 -10 -11 -9 -11 6 0 18 14 19 13 13 -2
-3 -10 -1 -20 5 -24 6 -4 8 -3 5 2 -3 6 -2 16 4 24 7 12 9 11 10 -5 1 -17 2
-16 9 5 7 23 8 23 9 3 1 -12 6 -25 11 -28 8 -5 7 -12 -2 -23 -11 -15 -11 -15
3 -5 9 7 18 10 21 7 3 -3 9 0 14 7 4 7 3 10 -3 6 -12 -8 -39 20 -29 30 3 3 6
1 6 -5 0 -6 9 -9 20 -7 11 2 19 -1 17 -8 -1 -7 4 -11 11 -10 14 3 16 -13 3
-21 -5 -4 -11 -1 -13 6 -3 8 -7 6 -11 -4 -4 -13 -1 -16 14 -13 14 3 19 0 16
-9 -3 -7 1 -13 9 -13 7 0 10 5 7 10 -3 5 0 7 8 5 8 -3 13 -11 11 -17 -1 -7 2
-9 8 -6 6 4 9 14 6 24 -4 11 -2 10 10 -4 8 -11 20 -19 26 -17 6 2 3 -10 -7
-25 l-18 -28 23 20 23 20 -6 -20 c-7 -20 -7 -20 8 -1 11 15 15 16 15 5 0 -8
-6 -21 -12 -28 -11 -11 -10 -12 1 -6 11 6 13 4 8 -11 -7 -18 -6 -18 6 -2 8 10
16 15 19 12 4 -3 9 -1 12 5 4 6 -2 8 -13 6 -14 -3 -18 1 -14 12 5 12 7 12 14
1 5 -7 9 -9 9 -4 0 18 30 -17 30 -36 0 -10 7 -21 15 -24 8 -4 12 -11 8 -17 -3
-6 -1 -7 5 -3 6 4 10 12 8 19 -1 7 -1 9 1 4 3 -4 9 -5 14 -1 5 3 8 2 7 -3 -2
-4 2 -10 7 -11 19 -7 35 -24 29 -33 -3 -5 1 -9 8 -9 10 0 10 -2 -1 -9 -8 -5
-11 -17 -6 -32 4 -16 3 -20 -3 -11 -7 11 -10 10 -16 -3 -3 -9 -11 -15 -18 -13
-6 2 -20 -4 -31 -15 -10 -10 -25 -16 -34 -13 -13 6 -14 4 -3 -9 7 -9 9 -15 4
-13 -16 4 -55 -23 -48 -34 4 -6 3 -9 -2 -6 -5 3 -20 -6 -34 -20 -14 -14 -17
-20 -7 -12 15 11 17 11 11 -4 -5 -12 -14 -16 -29 -14 -13 3 -22 0 -22 -8 0 -7
4 -11 9 -8 4 3 8 0 8 -5 0 -6 -10 -9 -22 -7 -13 3 -23 5 -23 6 0 1 -8 3 -18 5
-10 2 -14 -1 -10 -8 4 -6 0 -8 -10 -4 -9 3 -18 -1 -21 -10 -5 -12 -9 -13 -21
-3 -13 11 -14 10 -8 -6 6 -17 5 -17 -10 -5 -15 12 -17 12 -11 -3 4 -9 3 -16
-2 -15 -20 3 -49 -3 -36 -8 9 -3 4 -10 -13 -19 -35 -18 -45 -17 -21 1 15 12
16 15 5 15 -9 0 -21 -12 -27 -26 -7 -14 -17 -22 -22 -19 -6 3 -10 -2 -10 -12
0 -15 -2 -16 -10 -3 -8 12 -10 12 -10 1 0 -8 -7 -11 -20 -8 -11 3 -20 1 -20
-5 0 -6 -6 -8 -14 -5 -8 3 -13 -1 -12 -11 1 -12 -5 -16 -18 -14 -18 3 -19 2
-5 -15 13 -16 13 -17 -3 -4 -10 7 -16 16 -14 20 2 3 -6 15 -17 26 -11 11 -16
13 -12 5 5 -8 -12 3 -38 24 -26 21 -47 42 -47 47 0 5 -3 8 -7 8 -21 -3 -33 2
-33 16 0 8 -5 15 -11 15 -5 0 -7 -6 -3 -12 4 -7 -6 -1 -23 15 -16 15 -32 24
-36 20 -4 -3 -7 -2 -7 4 0 6 -7 14 -16 17 -8 3 -13 2 -9 -3 3 -5 -8 -4 -25 2
-16 6 -30 15 -30 20 0 4 -4 5 -10 2 -5 -3 -10 -1 -10 5 0 6 -6 10 -12 9 -7 -1
-24 -1 -38 0 -19 1 -22 3 -10 10 8 6 18 7 24 4 5 -3 6 -1 2 5 -4 7 -15 8 -30
2 -26 -10 -69 -2 -61 10 3 5 1 11 -4 14 -5 4 -13 1 -17 -5 -5 -8 -3 -9 6 -4 8
5 11 4 7 -2 -4 -6 -18 -8 -33 -5 -14 2 -21 7 -16 11 6 3 -54 7 -132 9 -137 3
-142 3 -143 -18 -1 -11 2 -18 8 -15 5 4 9 1 9 -4 0 -6 -6 -11 -12 -11 -9 0 -9
-3 1 -9 11 -7 13 -28 8 -101 -4 -68 -3 -90 5 -82 8 8 18 5 37 -9 14 -12 26
-25 26 -29 0 -5 9 -16 20 -25 11 -9 15 -14 8 -11 -6 4 -15 1 -19 -6 -4 -7 -4
-10 1 -6 4 4 16 3 26 -3 14 -7 17 -17 13 -42 -4 -21 -3 -28 4 -19 7 11 10 10
16 -3 15 -41 27 -260 14 -260 -4 0 -14 -9 -23 -20 -9 -11 -14 -15 -11 -9 3 6
-1 11 -8 11 -8 0 -12 -7 -8 -15 3 -9 1 -13 -5 -9 -6 4 -18 -2 -28 -13 -10 -11
-21 -17 -25 -15 -12 8 -41 -6 -34 -16 3 -5 -2 -6 -10 -3 -9 3 -13 11 -9 17 3
6 -5 2 -19 -9 -21 -15 -24 -22 -15 -33 9 -12 9 -13 0 -7 -8 4 -13 2 -13 -5 0
-7 -3 -9 -7 -5 -11 11 -12 67 -2 60 5 -3 9 -3 9 0 0 2 3 13 6 23 5 15 4 15 -5
3 -9 -12 -11 -10 -11 13 0 15 5 27 10 27 6 0 10 5 10 11 0 5 -5 7 -12 3 -8 -5
-9 2 -5 26 4 19 2 38 -4 46 -6 8 -9 14 -5 14 3 0 -5 23 -19 51 -17 33 -24 60
-21 80 3 22 1 28 -7 21 -19 -15 -57 4 -57 29 0 14 -5 19 -14 16 -8 -3 -16 -3
-18 1 -2 4 -16 14 -33 22 -35 18 -38 38 -10 54 11 6 23 15 26 20 4 5 13 5 20
1 11 -6 11 -5 3 4 -9 10 -17 10 -33 2 -12 -7 -21 -9 -21 -7 0 13 58 33 91 32
27 -1 35 3 36 16 1 10 -3 18 -8 18 -6 0 -7 -5 -3 -11 4 -7 1 -10 -7 -7 -10 3
-15 30 -17 102 -1 54 1 95 6 92 5 -3 9 1 9 9 0 14 -45 14 -80 0 -10 -4 -25 -2
-35 6 -15 13 -16 12 -4 -2 11 -15 7 -18 -37 -29 -27 -6 -60 -13 -73 -15 -12
-1 -35 -9 -51 -17 -15 -9 -45 -14 -67 -13 -25 2 -37 -1 -33 -8 4 -6 0 -8 -10
-4 -10 3 -17 2 -17 -3 0 -13 27 -13 35 0 3 6 11 10 16 10 6 0 4 -7 -5 -15 -8
-8 -22 -15 -31 -15 -10 0 -13 -5 -9 -12 4 -6 3 -8 -4 -4 -6 3 -14 0 -19 -8 -4
-7 -17 -16 -28 -18 -11 -2 -19 -10 -18 -16 2 -7 -1 -11 -6 -9 -5 1 -10 -2 -11
-8 -3 -12 -32 -33 -42 -31 -12 2 -37 -38 -30 -49 3 -5 -1 -4 -10 3 -13 10 -15
9 -15 -5 0 -36 -3 -43 -21 -43 -11 0 -18 -8 -19 -22 -2 -21 -21 -40 -33 -33
-3 2 -6 -5 -6 -15 0 -10 5 -16 10 -13 5 4 7 -1 3 -11 -4 -10 -10 -29 -13 -42
-3 -13 -9 -24 -13 -24 -4 0 -8 -14 -8 -32 0 -18 -5 -34 -11 -36 -7 -2 -12 -8
-12 -13 0 -6 4 -7 10 -4 12 7 7 -135 -5 -156 -8 -12 -7 -12 9 0 9 8 16 10 15
5 -2 -5 3 -26 10 -46 7 -21 9 -43 5 -49 -4 -8 -3 -9 4 -5 7 4 12 1 12 -9 0
-10 -5 -13 -12 -9 -7 4 -8 3 -4 -4 4 -6 13 -9 20 -6 7 3 19 -3 27 -12 13 -16
12 -17 -9 -12 -12 4 -20 2 -16 -3 3 -5 11 -9 18 -9 17 0 82 -59 78 -72 -1 -5
2 -7 7 -4 19 12 42 -6 36 -28 -4 -13 -3 -16 2 -9 5 7 14 9 22 3 8 -4 21 -6 29
-2 11 4 13 1 8 -7 -5 -7 -16 -11 -26 -8 -13 3 -17 0 -13 -9 4 -11 10 -11 35 2
23 12 32 13 38 4 4 -7 16 -9 29 -5 15 4 21 2 21 -9 0 -19 -56 -50 -77 -41 -13
4 -14 3 -4 -9 10 -12 2 -19 -45 -42 -31 -15 -62 -27 -70 -27 -8 0 -14 -7 -15
-16 0 -12 -3 -11 -9 4 -6 14 -9 16 -10 5 -2 -8 -2 -19 -1 -23 1 -5 -3 -6 -9
-2 -5 3 -10 1 -10 -5 0 -6 -4 -9 -9 -6 -5 3 -12 -1 -15 -10 -4 -10 -14 -14
-26 -11 -11 3 -20 0 -20 -6 0 -7 -14 -20 -31 -29 -18 -11 -27 -13 -24 -5 4 6
-3 0 -15 -15 -22 -28 -40 -36 -40 -18 0 6 5 9 11 8 6 -2 13 3 14 10 2 7 1 8
-2 2 -2 -5 -9 -7 -15 -4 -5 3 -12 -3 -15 -14 -5 -21 -29 -36 -43 -27 -5 3 -12
0 -16 -6 -4 -8 -3 -9 4 -5 8 4 10 2 6 -7 -3 -8 -15 -14 -27 -13 -12 0 -22 -3
-22 -9 -1 -5 -6 -21 -13 -35 -12 -23 -12 -24 2 -6 22 27 19 8 -5 -34 -11 -19
-17 -25 -14 -13 3 12 1 24 -4 28 -6 3 -8 0 -5 -8 3 -8 1 -18 -5 -22 -6 -3 -11
2 -12 12 0 10 -3 13 -5 7 -2 -6 -18 -8 -35 -6 -22 3 -27 7 -18 13 10 6 7 8 -8
6 -12 0 -21 -6 -20 -12 1 -5 -10 -11 -25 -13 -16 -2 -28 -8 -28 -13 0 -5 -6
-8 -12 -7 -7 2 -13 -7 -13 -19 0 -12 -5 -26 -9 -30 -5 -4 -6 -2 -2 5 4 6 2 12
-3 12 -6 0 -11 -7 -11 -16 0 -14 -2 -15 -17 -3 -14 12 -16 12 -8 0 6 -11 4
-13 -9 -8 -11 5 -15 3 -10 -5 5 -8 2 -9 -10 -5 -9 4 -14 3 -11 -2 3 -5 1 -12
-5 -16 -5 -3 -10 -2 -10 2 0 5 -9 9 -20 9 -10 0 -17 -2 -15 -5 8 -7 -27 -41
-36 -35 -5 3 -28 -6 -53 -20 -24 -13 -47 -22 -50 -19 -3 4 -6 -1 -6 -10 0 -10
-5 -17 -11 -17 -5 0 -7 5 -4 10 3 6 1 10 -4 10 -6 0 -11 -7 -11 -16 0 -11 -6
-14 -22 -10 -13 3 -17 3 -11 0 9 -4 6 -14 -10 -37 -12 -18 -28 -36 -34 -40 -7
-4 -13 -15 -13 -24 0 -12 -3 -13 -14 -4 -11 10 -14 9 -12 -1 1 -7 6 -19 10
-27 5 -8 5 -12 0 -9 -10 7 -36 -17 -27 -25 2 -3 2 -15 -2 -27 -5 -17 -9 -19
-21 -9 -12 10 -15 10 -12 -2 2 -8 8 -17 13 -21 6 -5 6 -8 -2 -8 -6 0 -10 -9
-8 -19 2 -11 -3 -22 -11 -25 -17 -7 -19 -36 -1 -37 9 0 9 -2 0 -5 -6 -3 -10
-16 -7 -29 3 -15 -2 -25 -12 -29 -14 -5 -15 -4 -5 8 7 9 8 17 2 20 -5 3 -12 0
-14 -6 -3 -7 -5 -2 -5 12 1 43 -2 51 -14 44 -6 -4 -8 -3 -4 4 3 6 2 14 -4 17
-8 5 -8 11 0 20 8 10 8 15 -1 21 -8 5 -9 3 -4 -7 7 -12 6 -12 -7 -1 -16 13
-13 66 3 56 5 -3 7 -9 4 -14 -3 -4 3 -14 13 -21 15 -13 16 -12 3 4 -7 9 -10
17 -6 17 4 0 2 6 -4 13 -6 8 -7 18 -3 22 4 5 2 6 -3 2 -6 -3 -17 -2 -25 4 -8
5 -10 9 -5 9 6 0 11 10 12 23 2 22 2 22 -14 2 -14 -18 -15 -18 -9 -1 3 10 1
26 -6 34 -10 12 -10 14 0 8 7 -4 12 -1 12 9 0 9 -4 14 -8 11 -4 -2 -9 3 -9 12
-1 9 -4 32 -6 50 -3 18 -1 34 3 37 3 2 5 18 2 36 -3 21 -7 27 -13 18 -6 -10
-8 -7 -6 8 0 12 5 19 9 17 9 -6 10 3 12 136 2 67 -2 100 -11 111 -7 9 -11 24
-7 33 5 14 9 14 23 4 14 -11 14 -11 3 4 -16 21 -24 105 -11 114 5 3 18 0 27
-8 15 -11 15 -11 5 3 -7 9 -10 19 -6 23 4 4 0 4 -9 1 -13 -5 -16 -1 -13 17 1
13 6 32 11 42 5 14 4 17 -5 11 -10 -6 -10 -2 0 16 7 13 12 33 12 44 -1 16 -1
16 3 3 3 -10 13 -18 22 -18 13 0 14 2 4 9 -7 4 -13 16 -13 27 -1 35 8 92 17
106 5 7 8 22 6 33 -2 19 -1 19 6 1 8 -18 9 -18 15 -2 4 9 11 15 16 12 9 -6 7
36 -3 52 -3 4 1 20 8 34 9 17 10 31 4 44 -9 18 -9 18 6 0 12 -15 13 -23 4 -33
-9 -11 -7 -17 5 -29 9 -8 12 -9 7 -2 -13 15 -13 31 -1 23 6 -3 8 6 5 21 -3 15
-1 23 5 20 6 -4 8 4 5 20 -3 18 -1 23 7 18 7 -4 9 -3 6 2 -3 6 -2 16 3 24 5 8
4 22 -2 33 -8 15 -7 18 3 12 9 -6 11 -3 6 8 -4 11 -2 14 8 11 7 -3 12 -13 10
-23 -2 -10 3 -18 11 -18 8 0 10 4 5 11 -5 6 -7 22 -5 36 3 17 1 21 -5 12 -7
-11 -9 -10 -14 3 -4 10 -3 14 4 10 6 -4 9 1 7 11 -2 11 2 18 9 17 7 -2 20 8
29 22 9 14 20 22 25 19 5 -3 6 2 2 11 -5 13 -7 14 -14 3 -5 -7 -9 -8 -9 -3 0
6 7 21 16 33 8 12 12 27 8 34 -4 7 -3 8 4 4 16 -10 15 -33 0 -39 -7 -3 -3 -5
8 -4 19 1 20 5 13 31 -7 22 -6 27 3 18 15 -15 39 4 31 25 -5 12 -3 14 8 8 8
-4 11 -5 7 0 -4 4 0 21 8 37 13 25 17 28 32 16 13 -11 14 -11 7 2 -5 8 -8 24
-6 35 2 11 -1 16 -6 12 -4 -5 -8 -12 -8 -15 -1 -4 -13 -26 -28 -50 -15 -23
-25 -47 -22 -52 3 -5 1 -12 -5 -15 -7 -4 -10 5 -8 24 1 16 5 28 9 25 4 -2 12
10 19 26 7 17 17 30 22 30 5 0 7 4 4 8 -3 5 8 22 24 37 16 15 27 31 25 35 -3
4 4 15 14 24 14 13 21 14 27 5 5 -8 3 -10 -5 -4 -10 6 -11 3 -2 -14 16 -29 19
-26 15 11 -2 18 -1 41 2 52 6 18 8 18 21 -7 7 -15 15 -27 16 -27 1 0 2 14 3
31 1 20 -2 26 -7 17 -5 -7 -9 -8 -9 -2 0 6 15 28 33 49 25 29 36 35 42 25 6
-9 4 -11 -5 -5 -9 6 -11 4 -5 -5 6 -9 4 -11 -5 -5 -9 6 -11 4 -5 -5 5 -9 4
-11 -3 -6 -8 5 -10 1 -5 -10 5 -15 7 -15 15 0 5 9 13 14 17 11 5 -2 8 5 7 18
-1 13 4 21 12 19 10 -2 12 4 7 20 -5 17 -4 19 4 9 17 -26 38 -21 33 7 -3 17
-1 23 6 18 7 -4 10 -2 7 7 -3 7 3 22 15 32 11 10 20 14 20 9 0 -5 7 2 16 14
16 23 17 23 38 5 11 -9 16 -12 10 -4 -7 7 -9 22 -6 34 6 21 6 21 14 -3 7 -22
7 -22 5 6 -3 31 11 40 30 19 4 -4 3 -6 -2 -2 -7 3 -11 -4 -11 -18 0 -13 4 -21
8 -19 5 3 6 9 3 14 -3 5 -1 11 4 15 5 3 8 14 6 24 -2 11 5 27 16 37 10 9 19
14 19 9 0 -4 7 -1 16 6 9 7 31 13 48 12 18 -1 23 0 11 4 -32 8 -39 21 -9 15
23 -4 26 -2 21 14 -7 19 -7 19 8 0 8 -10 12 -23 8 -29 -3 -6 -1 -7 5 -3 8 5 8
15 1 34 l-9 27 18 -23 18 -23 0 28 c-1 25 2 28 32 28 22 1 31 -3 28 -12 -11
-26 4 -12 19 20 10 19 11 26 3 17 -15 -17 -38 -20 -37 -5 0 6 7 9 16 7 9 -2
12 1 8 8 -3 6 -3 10 2 9 4 -1 11 0 16 1 4 1 11 3 16 4 5 0 17 10 27 21 11 12
15 15 10 8 -6 -9 -4 -18 4 -26 7 -7 10 -7 7 -1 -4 6 5 22 20 35 14 13 24 20
21 14 -3 -5 -2 -19 3 -30 7 -18 8 -17 8 6 1 15 9 33 18 40 9 8 14 9 11 4 -4
-6 -3 -17 3 -25 7 -12 9 -10 9 7 0 29 17 38 29 15 7 -13 6 -23 -2 -32 -10 -12
-9 -12 5 -1 13 10 15 18 7 39 l-9 27 18 -24 c14 -17 21 -20 27 -11 6 9 9 9 16
-1 6 -9 7 -2 4 19 -5 28 -3 31 9 20 8 -7 11 -17 8 -22 -3 -5 0 -6 7 -2 9 6 9
11 0 22 -15 19 -4 18 14 -1 13 -13 16 -13 21 0 3 8 0 17 -6 21 -7 5 -8 2 -3
-6 5 -9 4 -11 -4 -6 -16 11 -3 26 16 19 10 -4 14 -2 10 4 -4 7 0 10 10 9 10
-2 21 1 24 6 3 5 9 3 12 -5 4 -12 0 -15 -15 -12 -11 3 -18 1 -14 -2 4 -4 18
-8 31 -9 20 -1 23 2 14 13 -14 17 2 17 21 1 8 -7 7 -4 -3 8 -14 17 -15 21 -2
21 8 0 15 -5 15 -11 0 -5 7 -1 16 10 8 10 13 13 9 7 -9 -18 5 -16 27 3 16 16
18 15 28 -7 l10 -24 -3 26 c-3 20 0 26 12 24 9 -1 21 0 26 4 6 3 17 6 25 6 8
0 21 4 29 9 10 6 12 5 7 -3 -4 -6 0 -14 8 -17 9 -3 13 -11 9 -17 -3 -6 -1 -7
6 -3 6 4 9 11 7 15 -3 4 -1 13 5 21 7 12 9 11 10 -5 1 -11 1 -23 0 -27 -2 -13
6 -9 20 9 10 11 10 14 2 9 -8 -4 -13 -1 -13 9 0 12 4 14 19 5 23 -12 31 -13
30 -2 -4 23 4 23 33 -4 18 -16 26 -21 18 -11 -12 16 -11 18 11 15 13 -2 31 -8
39 -13 13 -8 13 -6 2 8 -16 18 -10 34 12 34 8 0 13 -4 10 -9z m186 6 c0 -8
-19 -13 -24 -6 -3 5 1 9 9 9 8 0 15 -2 15 -3z m164 -16 c-3 -4 -11 -5 -19 -1
-21 7 -19 12 4 10 11 0 18 -5 15 -9z m-1799 -28 c3 -5 1 -10 -4 -10 -6 0 -11
5 -11 10 0 6 2 10 4 10 3 0 8 -4 11 -10z m2142 -52 c-3 -8 -6 -5 -6 6 -1 11 2
17 5 13 3 -3 4 -12 1 -19z m-1288 -54 c-15 -18 -22 -13 -13 10 3 9 10 13 16
10 5 -3 4 -12 -3 -20z m-965 -5 c-3 -5 -10 -7 -15 -4 -5 4 -9 1 -9 -4 0 -6 -7
-11 -15 -11 -8 0 -14 -3 -14 -7 3 -18 -2 -24 -13 -17 -7 5 1 17 23 35 31 25
57 30 43 8z m2483 -31 c-3 -8 -6 -5 -6 6 -1 11 2 17 5 13 3 -3 4 -12 1 -19z
m1594 -32 c10 -4 16 -18 15 -32 0 -13 -2 -24 -3 -24 -1 0 -13 4 -27 10 -20 7
-27 6 -35 -8 -6 -10 -11 -12 -11 -4 0 6 -7 12 -15 12 -8 0 -15 5 -15 11 0 5
-6 7 -12 3 -10 -6 -10 -4 0 8 7 9 22 15 34 13 16 -3 18 -1 8 10 -9 11 -6 13
17 11 15 -2 35 -6 44 -10z m44 -55 c-12 -11 -24 16 -18 39 l7 25 7 -30 c5 -16
6 -31 4 -34z m-3823 -286 c-6 -34 -13 -32 -10 4 1 16 5 28 9 26 3 -3 4 -16 1
-30z m-659 11 c4 -10 1 -13 -8 -9 -8 3 -12 9 -9 14 7 12 11 11 17 -5z m-120
-179 c3 -8 -1 -14 -8 -14 -7 0 -11 6 -8 14 3 7 6 13 8 13 2 0 5 -6 8 -13z
m4754 -67 c6 -8 15 -12 19 -7 4 4 2 7 -4 7 -7 0 -12 5 -12 11 0 6 5 7 13 2 6
-4 17 -8 22 -8 6 0 10 -9 11 -20 1 -29 -7 -39 -17 -24 -6 10 -9 8 -9 -8 0 -31
-36 -40 -63 -15 -17 15 -28 18 -45 11 -21 -8 -23 -7 -16 14 3 12 7 27 8 32 2
16 14 21 48 21 18 -1 38 -8 45 -16z m-105 -15 c-6 -31 -11 -31 -38 -4 l-25 25
33 0 c27 -1 32 -5 30 -21z m-1285 -47 c7 -6 10 -14 7 -19 -3 -5 3 -6 13 -2 16
6 17 5 3 -12 -9 -11 -10 -16 -2 -11 7 4 12 2 12 -4 0 -6 5 -8 13 -4 9 6 9 4
-1 -8 -10 -13 -10 -18 -1 -24 8 -4 9 -3 5 4 -4 7 -2 12 3 12 6 0 11 -9 11 -20
0 -11 5 -20 10 -20 6 0 10 -5 10 -11 0 -5 -5 -7 -12 -3 -7 4 -8 3 -4 -4 4 -6
14 -8 24 -5 15 6 16 5 2 -12 -12 -15 -12 -17 -1 -10 11 6 13 4 8 -9 -4 -9 -3
-15 2 -12 11 7 32 -17 36 -41 1 -10 8 -17 16 -15 10 2 10 0 -1 -13 -11 -14
-10 -17 9 -22 15 -4 19 -8 11 -13 -17 -11 7 -53 26 -46 9 3 14 -1 14 -12 0
-10 6 -24 13 -31 8 -10 8 -12 0 -7 -6 3 -15 2 -18 -4 -4 -6 -3 -10 2 -9 4 1
17 1 28 0 17 -1 18 -3 5 -11 -10 -6 -11 -10 -2 -10 6 0 12 -7 12 -16 0 -9 5
-12 13 -8 9 6 9 5 0 -7 -9 -11 -8 -18 1 -31 7 -10 16 -15 19 -11 7 6 11 -21 8
-41 -1 -5 5 -6 13 -3 20 8 28 -4 13 -21 -9 -13 -9 -14 1 -8 7 4 12 1 12 -9 0
-9 3 -14 8 -12 4 3 8 -12 8 -34 1 -21 -2 -39 -5 -40 -39 -6 -64 -4 -68 7 -3 8
-10 11 -17 7 -6 -4 -4 2 4 12 14 17 13 18 -4 12 -13 -5 -17 -3 -13 7 3 8 -2
16 -12 19 -10 2 -18 10 -19 18 -3 43 -7 57 -16 56 -5 -1 -15 8 -21 20 -7 13
-20 32 -29 42 -10 11 -15 24 -12 29 3 6 -1 13 -10 16 -11 4 -15 14 -12 31 4
20 3 23 -8 14 -10 -8 -14 -8 -14 -1 0 6 5 14 11 18 12 7 -4 29 -21 29 -6 0
-10 3 -10 8 0 4 -9 16 -21 28 -11 11 -18 27 -15 35 3 8 1 14 -5 14 -6 0 -7 5
-4 10 3 6 0 10 -8 10 -8 0 -20 7 -27 16 -8 8 -9 14 -4 13 24 -4 24 3 0 27 -22
22 -24 29 -14 42 12 14 10 14 -12 2 -22 -12 -24 -12 -12 2 8 10 9 19 3 22 -5
3 -11 3 -14 -1 -2 -5 -3 -3 -1 3 1 6 -3 17 -9 23 -9 9 -9 14 2 20 8 5 10 14 6
21 -5 9 -4 11 3 6 7 -4 12 -1 12 7 0 16 29 19 47 5z m1338 2 c3 -5 -1 -10 -10
-10 -9 0 -13 5 -10 10 3 6 8 10 10 10 2 0 7 -4 10 -10z m-1797 -14 c-7 -8 -15
-12 -17 -11 -5 6 10 25 20 25 5 0 4 -6 -3 -14z m-968 -162 c0 -8 -19 -13 -24
-6 -3 5 1 9 9 9 8 0 15 -2 15 -3z m-1543 -36 c-3 -8 -6 -5 -6 6 -1 11 2 17 5
13 3 -3 4 -12 1 -19z m3161 -103 c-3 -3 -9 2 -12 12 -6 14 -5 15 5 6 7 -7 10
-15 7 -18z m-94 -13 c3 -5 -1 -9 -9 -9 -8 0 -12 4 -9 9 3 4 7 8 9 8 2 0 6 -4
9 -8z m-3131 -27 c-3 -9 -8 -14 -10 -11 -3 3 -2 9 2 15 9 16 15 13 8 -4z
m3327 -101 c0 -8 -19 -13 -24 -6 -3 5 1 9 9 9 8 0 15 -2 15 -3z m-1615 -44 c3
-5 1 -10 -4 -10 -6 0 -11 5 -11 10 0 6 2 10 4 10 3 0 8 -4 11 -10z m-1772 -36
c-4 -12 -8 -13 -14 -3 -9 15 -2 32 11 24 5 -3 6 -13 3 -21z m4330 -54 c-6 -7
-23 23 -23 40 0 8 6 4 13 -10 8 -14 12 -27 10 -30z m-1565 -1 c-10 -7 -10 -9
0 -9 6 0 12 -7 12 -15 0 -8 9 -23 20 -32 15 -13 17 -20 8 -30 -8 -9 -8 -13 -1
-11 6 2 11 -1 11 -6 0 -5 6 -12 12 -16 7 -4 13 -19 13 -34 2 -22 4 -24 13 -11
10 13 12 11 12 -12 0 -14 7 -32 16 -39 13 -9 14 -13 4 -17 -9 -4 -9 -6 2 -6 8
-1 22 -11 30 -23 17 -27 22 -50 9 -42 -5 3 -6 10 -3 16 4 6 3 8 -3 5 -6 -4 -9
-19 -6 -34 2 -16 5 -47 8 -71 2 -24 8 -49 14 -56 6 -7 9 -16 6 -19 -3 -4 -2
-5 1 -3 3 3 15 -4 27 -14 17 -16 23 -17 36 -7 12 9 13 9 7 0 -5 -10 3 -13 28
-13 22 0 36 5 36 13 0 8 4 7 10 -3 9 -14 15 -7 11 14 -1 5 5 3 14 -4 13 -11
14 -10 9 5 -5 13 -4 16 4 11 6 -4 22 -1 34 6 13 7 25 13 28 13 3 1 17 7 33 13
30 13 37 25 10 16 -15 -5 -15 -4 -3 4 10 8 18 8 27 1 9 -8 11 -6 8 8 -2 12 2
20 10 20 8 0 12 -5 9 -11 -3 -6 2 -2 10 8 9 11 16 17 16 13 0 -4 9 -3 21 3 11
7 18 14 15 17 -3 3 2 12 12 19 12 9 21 9 30 2 10 -8 11 -7 6 7 -5 13 -4 16 4
11 7 -4 12 -2 12 6 0 9 3 9 10 -2 6 -9 10 -10 10 -3 0 6 10 15 21 18 15 5 18
10 9 15 -8 5 -7 9 5 14 10 3 15 12 11 21 -3 8 0 17 6 21 7 5 8 2 4 -7 -4 -8
-1 -6 8 5 8 10 19 15 24 12 5 -3 18 1 28 8 13 10 23 11 31 4 9 -7 13 -7 13 2
0 8 3 10 6 7 4 -3 16 -1 28 5 11 7 25 12 29 13 4 0 12 7 17 15 5 8 10 11 10 6
0 -4 16 6 36 23 33 29 63 34 47 8 -3 -7 3 -4 14 6 11 9 24 17 29 17 5 0 2 -5
-6 -10 -13 -8 -12 -10 3 -10 9 0 17 8 17 18 1 15 2 15 12 -3 7 -11 14 -29 15
-40 2 -11 5 -27 6 -35 1 -8 6 -21 10 -27 5 -7 5 -18 2 -23 -4 -6 -1 -18 7 -27
9 -12 9 -15 1 -9 -8 4 -13 2 -13 -4 0 -6 -5 -8 -12 -4 -10 6 -10 4 0 -8 9 -11
10 -18 2 -23 -6 -4 -7 -13 -1 -23 4 -9 7 -25 6 -35 -2 -9 1 -15 5 -12 9 5 6
37 -5 54 -3 5 -1 12 5 16 6 4 8 11 5 16 -10 15 2 10 16 -8 9 -10 9 -14 2 -10
-13 8 -12 -39 2 -78 6 -16 5 -17 -4 -5 -9 12 -11 11 -11 -8 0 -13 4 -20 10
-17 6 3 7 -1 4 -9 -3 -9 -9 -14 -13 -12 -3 2 -6 -7 -6 -20 0 -25 11 -32 18
-11 2 6 2 2 1 -10 -2 -12 1 -25 6 -28 7 -4 7 -12 2 -18 -5 -7 -7 -29 -6 -51 1
-21 -1 -33 -5 -27 -9 14 -8 62 2 78 4 6 1 15 -6 21 -9 8 -12 -17 -12 -118 0
-109 2 -127 14 -117 12 10 12 9 0 -11 -12 -20 -12 -24 1 -32 9 -6 10 -10 3
-10 -7 0 -11 -14 -10 -38 1 -21 -2 -39 -8 -39 -5 0 -10 13 -10 28 0 15 3 25 7
23 3 -2 4 5 1 16 -8 30 -14 18 -16 -32 -1 -23 -5 -47 -8 -53 -4 -5 -3 -19 2
-30 8 -18 8 -18 6 4 -1 14 4 26 13 28 9 3 11 1 5 -4 -5 -4 -10 -17 -10 -28 0
-11 -6 -19 -12 -18 -7 2 -13 -1 -13 -6 0 -5 -3 -18 -6 -28 -6 -17 -6 -17 8 0
13 18 14 17 14 -2 0 -11 -4 -18 -7 -15 -4 2 -10 0 -14 -6 -4 -6 -12 -7 -18 -4
-7 4 -9 4 -5 -1 4 -4 3 -13 -2 -20 -6 -8 -5 -18 6 -31 15 -18 15 -18 5 2 -8
17 -7 25 4 34 9 7 18 10 22 6 3 -3 1 -6 -6 -6 -7 0 -11 -10 -10 -22 2 -13 0
-29 -5 -36 -4 -7 -5 -20 -2 -28 3 -9 1 -12 -4 -9 -6 3 -11 -4 -12 -17 -2 -43
-3 -47 -12 -55 -5 -4 -6 -3 -2 4 3 6 2 14 -3 17 -11 7 -9 -13 3 -33 7 -10 6
-12 -4 -6 -10 6 -12 4 -7 -9 4 -10 3 -15 -3 -11 -14 9 -12 -8 3 -24 7 -8 7
-11 1 -8 -7 4 -18 -1 -25 -10 -12 -14 -12 -16 1 -8 9 5 7 -1 -5 -15 -11 -13
-15 -20 -8 -17 12 7 11 -6 -2 -35 -4 -10 -12 -18 -17 -18 -6 0 -6 6 1 14 8 10
9 16 1 21 -6 4 -9 1 -8 -7 2 -7 -2 -12 -9 -11 -13 3 -12 -22 2 -34 4 -4 5 -2
0 6 -5 10 -4 12 4 7 6 -4 9 -12 5 -17 -3 -5 -10 -7 -15 -4 -5 4 -9 -1 -9 -10
0 -10 5 -13 12 -9 7 4 8 3 4 -5 -4 -6 -12 -8 -18 -5 -7 5 -9 1 -5 -9 3 -8 0
-20 -7 -26 -9 -8 -13 -7 -13 4 0 8 3 12 6 10 3 -2 6 10 6 26 1 30 -7 31 -12 1
-6 -30 -8 -37 -16 -49 -4 -6 -2 -15 4 -19 8 -5 9 -3 4 6 -5 9 -4 11 4 6 6 -4
8 -13 4 -19 -4 -7 -8 -16 -8 -22 -1 -5 -7 -9 -13 -7 -7 1 -12 -3 -11 -10 3
-25 -1 -38 -12 -38 -8 0 -7 6 2 18 12 15 12 16 -2 5 -9 -7 -18 -11 -21 -8 -2
3 -5 -2 -5 -10 0 -8 4 -12 9 -9 15 9 8 -18 -12 -46 -11 -15 -16 -31 -12 -36 4
-4 -1 -2 -10 5 -18 14 -15 36 4 25 5 -4 2 5 -7 20 -20 30 -30 35 -15 7 7 -14
7 -22 0 -26 -8 -5 -7 -11 1 -21 13 -16 5 -44 -13 -43 -10 0 -10 2 0 6 6 2 12
9 12 15 0 6 -6 5 -15 -2 -12 -10 -13 -16 -3 -27 6 -8 7 -13 2 -12 -28 5 -35
-1 -23 -22 8 -15 8 -19 0 -15 -10 7 -16 -6 -12 -27 1 -5 -3 -6 -9 -2 -6 3 -8
10 -6 14 3 4 -1 8 -9 8 -11 0 -12 -5 -3 -21 l11 -21 -24 20 c-13 11 -21 16
-17 11 4 -5 3 -15 -3 -23 -6 -7 -8 -13 -3 -14 5 0 0 -5 -11 -10 l-20 -9 20 3
c11 1 21 8 21 15 3 25 5 27 13 13 10 -15 -8 -41 -28 -41 -5 0 -13 -5 -17 -12
-5 -7 -3 -8 7 -3 11 7 11 5 -1 -11 -8 -10 -15 -20 -16 -22 -1 -2 -4 4 -8 13
-4 11 -2 14 6 9 7 -4 8 -3 4 5 -12 19 -22 4 -20 -28 1 -17 -2 -31 -8 -31 -5 0
-7 10 -3 23 5 19 5 20 -5 4 -7 -10 -9 -25 -6 -34 5 -13 4 -14 -8 -4 -13 11
-15 9 -11 -7 2 -12 -4 -27 -13 -34 -13 -11 -14 -11 -8 1 6 9 5 12 -5 9 -8 -3
-13 -11 -11 -17 1 -6 -1 -10 -5 -9 -21 4 -40 -15 -37 -38 1 -13 -2 -22 -7 -18
-5 3 -9 -1 -9 -8 0 -9 -3 -9 -10 2 -8 13 -10 12 -10 -4 0 -20 0 -20 -15 0 -14
18 -14 17 -5 -9 6 -17 6 -26 1 -22 -6 3 -14 -3 -20 -12 -6 -10 -11 -13 -11 -7
0 5 5 15 12 22 11 11 7 15 -9 10 -8 -3 -9 -7 -16 -41 -2 -9 -9 -23 -17 -30
-12 -10 -12 -9 -3 3 10 13 8 18 -10 29 -15 9 -18 10 -10 1 14 -15 6 -40 -14
-40 -8 0 -11 -4 -8 -10 3 -5 -1 -10 -10 -10 -10 0 -13 5 -9 13 6 9 4 9 -8 -1
-9 -7 -15 -22 -13 -34 4 -17 2 -18 -12 -6 -15 11 -16 11 -10 -5 4 -10 3 -16
-2 -12 -6 3 -15 -3 -21 -12 -11 -17 -11 -17 -6 0 3 11 2 15 -4 12 -6 -3 -10
-13 -10 -21 0 -12 -4 -12 -20 -4 -16 9 -20 8 -20 -5 0 -10 5 -13 13 -9 6 4 5
-1 -5 -11 -9 -10 -28 -17 -42 -17 -17 0 -26 -6 -26 -17 0 -10 -3 -12 -8 -5 -5
8 -11 7 -22 -4 -8 -9 -14 -18 -12 -19 1 -2 1 -2 -1 0 -2 1 -16 -6 -31 -17 -23
-15 -30 -16 -37 -5 -7 11 -9 10 -9 -5 0 -15 -3 -16 -15 -6 -12 10 -14 8 -10
-9 2 -14 -1 -18 -11 -14 -7 3 -11 10 -7 16 3 6 1 7 -6 3 -9 -6 -9 -11 0 -22 6
-8 9 -17 5 -21 -3 -3 -6 -2 -6 4 0 17 -38 22 -51 7 -7 -9 -8 -14 -1 -14 6 0
13 5 15 10 3 6 4 5 3 -2 -2 -7 -9 -13 -17 -13 -8 0 -17 -4 -21 -10 -4 -5 -18
-10 -30 -10 -13 -1 -22 -6 -20 -14 1 -7 -2 -10 -8 -6 -6 4 -18 1 -27 -7 -12
-9 -15 -9 -9 0 11 19 -5 14 -20 -5 -12 -17 -13 -16 -9 5 2 12 0 20 -6 17 -5
-4 -10 -16 -10 -28 -1 -17 -2 -18 -6 -4 -6 22 -21 23 -19 1 0 -9 -7 -18 -16
-20 -32 -7 -53 -12 -53 -14 0 -1 -15 -3 -33 -5 -19 -2 -41 -7 -50 -11 -26 -11
-66 -11 -79 -1 -9 7 -13 5 -13 -6 0 -9 -4 -18 -9 -21 -5 -4 -7 4 -5 16 2 13 2
17 -2 11 -3 -7 -10 -13 -15 -13 -6 0 -7 5 -4 10 3 6 4 10 0 10 -3 0 -10 -10
-15 -22 -6 -17 -9 -18 -9 -6 -1 9 -5 19 -10 22 -5 4 -7 -3 -4 -14 3 -12 0 -20
-6 -20 -7 0 -10 4 -6 9 3 5 0 13 -6 17 -7 4 -9 3 -6 -2 3 -6 2 -16 -4 -24 -6
-11 -9 -12 -9 -2 0 8 -5 10 -12 5 -18 -11 -35 -14 -101 -17 -49 -2 -57 0 -52
13 4 12 2 12 -9 -1 -14 -19 -32 -25 -21 -9 3 5 0 13 -6 17 -7 4 -9 3 -5 -4 6
-10 -9 -26 -29 -28 -5 0 -21 6 -34 14 -13 8 -20 9 -17 3 11 -18 -6 -13 -20 7
-13 16 -14 16 -8 -1 7 -19 -15 -21 -28 -2 -5 6 -8 6 -8 -1 0 -7 -16 -11 -42
-9 -61 4 -60 4 -53 14 3 5 0 13 -6 17 -7 4 -9 3 -5 -4 3 -6 2 -13 -4 -17 -9
-6 -14 7 -11 30 1 6 -8 -1 -19 -14 -11 -13 -20 -18 -20 -11 0 6 -10 10 -22 8
-13 -2 -23 2 -23 9 0 6 -4 15 -9 20 -5 5 -6 3 -2 -4 8 -15 -10 -18 -19 -3 -3
5 -12 7 -20 4 -8 -4 -12 -11 -8 -18 5 -8 3 -8 -8 0 -8 6 -22 10 -31 9 -22 -4
-33 11 -21 28 4 7 1 5 -8 -4 -17 -19 -54 -19 -54 -1 0 6 -4 14 -8 19 -5 4 -7
2 -5 -6 1 -7 -5 -15 -15 -16 -15 -3 -16 -1 -6 11 10 12 8 13 -12 6 -29 -10
-39 -10 -63 5 -11 6 -17 17 -13 26 6 16 -9 17 -32 3 -11 -7 -13 -5 -8 8 4 10
3 15 -3 11 -6 -3 -16 -3 -22 2 -7 4 -30 9 -51 10 -27 1 -43 8 -58 27 -15 19
-25 24 -37 17 -9 -4 -23 -6 -30 -4 -10 4 -10 8 0 21 11 13 10 14 -9 4 -24 -13
-40 -1 -27 21 6 9 5 9 -7 0 -12 -10 -21 -9 -45 3 -16 9 -31 15 -34 15 -3 0 -5
9 -4 19 0 14 -3 17 -11 10 -15 -12 -39 12 -27 26 4 4 -1 2 -10 -5 -15 -11 -21
-11 -33 -1 -8 7 -15 18 -15 24 0 6 7 3 14 -6 16 -22 23 -23 23 -3 0 8 -4 12
-8 10 -3 -3 -12 2 -19 10 -6 7 -18 11 -26 8 -12 -4 -12 -8 -2 -22 7 -9 -2 -3
-19 12 -17 16 -35 28 -40 27 -4 0 -9 7 -10 17 -2 15 -1 15 6 -2 8 -16 10 -17
10 -3 1 9 -4 20 -9 23 -6 4 -7 11 -4 17 4 7 2 8 -5 4 -6 -4 -9 -11 -6 -16 3
-5 1 -11 -5 -15 -5 -3 -10 1 -10 9 0 9 -5 16 -11 16 -5 0 -7 -6 -3 -12 4 -7
-6 -1 -23 15 -16 15 -33 24 -37 20 -4 -5 -6 -1 -4 7 2 9 -3 14 -12 12 -8 -2
-12 0 -8 3 4 4 -11 21 -32 36 -42 31 -48 46 -27 69 10 12 9 12 -4 2 -9 -6 -19
-9 -23 -5 -4 4 -4 -1 -1 -12 5 -16 5 -17 -3 -5 -6 8 -8 18 -5 24 4 5 -1 7 -10
3 -12 -4 -14 -2 -10 10 4 11 3 14 -5 9 -7 -4 -15 -1 -18 8 -3 9 -10 14 -14 11
-5 -3 -7 6 -4 21 3 14 1 24 -3 21 -4 -2 -19 9 -33 26 -14 17 -19 28 -12 24 6
-5 12 -4 12 2 0 10 -14 15 -32 12 -13 -2 -9 6 9 20 9 8 14 9 10 3 -4 -7 0 -14
8 -18 8 -3 15 0 15 7 1 7 7 1 15 -13 8 -14 14 -20 15 -13 0 14 23 11 43 -5 10
-9 22 -10 41 -2 18 6 26 6 26 -1 0 -6 4 -8 9 -4 5 3 12 1 15 -4 8 -13 36 -7
47 10 6 10 9 10 9 2 0 -8 15 -13 40 -13 24 0 40 5 40 12 0 6 3 8 7 5 3 -4 13
-1 21 6 11 8 13 8 9 0 -5 -8 -1 -8 18 0 14 7 25 15 25 19 0 4 7 5 15 2 8 -4
15 -1 15 4 0 6 9 9 20 7 11 -2 18 0 15 6 -4 5 4 7 17 5 13 -3 26 -5 31 -5 4
-1 7 -7 7 -15 0 -8 7 -16 15 -20 22 -8 18 3 -7 28 -13 12 -24 30 -26 41 -2 19
-2 19 15 -2 10 -12 26 -34 36 -48 10 -14 22 -23 27 -20 5 3 12 0 15 -6 4 -5
14 -8 22 -5 8 3 11 2 8 -3 -3 -5 -1 -12 3 -15 5 -3 19 8 31 25 18 24 25 28 41
19 14 -7 20 -7 20 0 0 5 -5 10 -11 10 -6 0 -4 7 5 15 8 9 19 14 23 13 4 -2 9
1 10 5 2 12 37 36 44 31 4 -2 12 3 19 11 7 8 17 15 23 15 6 0 2 -7 -9 -15 -11
-8 -14 -15 -6 -15 6 0 21 9 32 20 11 11 30 20 43 20 34 0 157 -27 170 -38 7
-5 26 -10 43 -10 17 0 48 -8 69 -16 21 -9 45 -16 54 -16 10 0 26 -8 37 -17 45
-41 52 -45 60 -32 4 7 3 9 -3 6 -6 -4 -16 -1 -22 7 -10 12 -6 13 27 5 56 -12
95 -28 104 -42 5 -8 8 -8 8 -1 0 14 91 -4 102 -20 4 -7 57 -12 130 -12 68 -1
135 -4 151 -7 15 -3 25 -1 21 4 -6 10 43 33 92 44 22 5 25 4 14 -4 -8 -6 -10
-11 -4 -11 14 0 36 25 29 32 -3 3 5 4 19 3 17 -2 26 3 29 16 3 10 11 19 19 19
10 0 9 -3 -2 -10 -9 -6 -10 -10 -3 -10 7 0 17 9 23 20 8 15 17 19 35 14 16 -4
25 -2 25 6 0 6 -4 8 -10 5 -5 -3 -10 -3 -10 2 0 4 13 14 29 21 16 7 31 22 34
33 3 12 10 18 16 14 6 -3 15 4 20 17 5 13 23 37 40 54 16 18 27 35 23 39 -4 5
-2 5 4 2 7 -4 18 1 25 10 12 14 12 16 0 8 -9 -5 -6 5 7 22 12 17 19 33 15 37
-3 3 1 14 9 23 19 22 73 164 82 216 4 20 11 37 16 37 5 0 7 -8 4 -17 -5 -15
-4 -16 5 -3 9 12 11 13 11 1 0 -8 3 -11 7 -8 3 4 0 15 -9 24 -14 18 -18 96 -5
110 11 11 8 25 -4 17 -8 -5 -10 3 -7 26 4 28 -1 40 -26 68 -64 71 -121 62
-168 -28 -7 -14 -17 -28 -23 -32 -6 -5 -5 -8 3 -8 15 0 15 -10 1 -47 -8 -22
-12 -24 -19 -13 -8 12 -10 10 -10 -8 0 -13 -4 -21 -9 -18 -5 4 -8 -2 -7 -11 4
-23 -33 -51 -61 -48 -12 1 -20 -2 -17 -6 3 -5 -25 -9 -61 -9 -36 0 -64 3 -61
8 2 4 -21 8 -53 8 -77 1 -182 23 -174 38 4 6 0 5 -9 -2 -17 -14 -52 -6 -42 10
3 5 -3 4 -15 -4 -18 -11 -26 -10 -52 4 -18 11 -40 15 -58 12 -16 -3 -32 -1
-35 5 -4 5 -12 9 -19 7 -7 -1 -9 -1 -5 1 4 3 10 4 14 3 4 -1 11 4 15 12 7 10
9 9 9 -4 0 -12 5 -15 16 -11 13 5 13 7 2 14 -11 7 -10 11 2 19 20 13 39 12 20
-1 -13 -9 -13 -10 0 -6 8 2 13 12 12 23 -2 10 -1 16 4 12 4 -4 13 -3 21 3 7 6
13 8 13 4 0 -4 7 -2 15 5 8 6 20 8 27 4 9 -6 9 -3 -1 9 -12 15 -12 17 3 11 9
-3 16 -1 16 5 0 6 7 8 15 5 10 -4 13 -2 10 8 -4 9 5 22 22 32 l28 17 -24 -20
c-14 -13 -18 -21 -10 -21 12 0 46 40 40 48 -1 1 6 16 14 32 9 17 11 30 5 30
-5 0 -10 5 -10 11 0 5 4 8 8 5 4 -2 8 4 8 14 0 10 -5 16 -10 13 -5 -4 -7 1 -3
10 6 17 -39 61 -53 52 -5 -3 -12 0 -16 6 -5 8 -3 9 6 4 8 -5 11 -4 7 3 -4 5
-17 8 -30 4 -19 -5 -20 -3 -9 10 11 14 10 16 -7 11 -13 -3 -23 2 -30 15 -12
22 0 39 19 27 6 -3 10 -1 10 6 0 10 3 10 11 2 15 -15 59 4 60 26 0 12 2 11 8
-3 7 -19 8 -19 13 2 5 19 11 21 40 15 29 -6 32 -5 20 10 -11 13 -10 15 5 12
10 -1 17 -8 15 -15 -1 -6 2 -9 7 -6 5 4 8 16 6 28 -3 11 -1 18 2 14 10 -10 13
-38 5 -50 -3 -6 -7 -17 -8 -24 -2 -8 -6 -17 -10 -20 -4 -4 -4 1 -1 11 4 10 3
16 -2 12 -6 -3 -9 -14 -8 -25 1 -10 3 -17 5 -15 2 2 10 -1 17 -8 10 -9 9 -14
-4 -24 -14 -12 -14 -12 3 -6 15 5 18 3 13 -10 -7 -19 8 -33 51 -42 18 -3 30
-10 28 -14 -3 -4 4 -7 14 -7 10 0 17 4 14 7 -2 4 0 10 6 14 5 3 10 0 10 -7 0
-9 3 -9 10 2 5 8 10 11 10 6 0 -5 8 -2 17 5 14 12 16 12 9 -1 -4 -8 0 -6 8 4
9 11 16 16 16 12 0 -5 6 -3 14 3 7 6 21 9 30 5 11 -4 16 -1 16 11 0 10 5 13
12 9 8 -5 9 -2 5 10 -4 11 -3 15 4 11 6 -4 20 1 31 12 12 10 18 12 14 6 -5 -9
-2 -11 8 -7 8 3 17 12 20 20 3 9 10 13 15 9 6 -3 13 0 18 7 4 7 17 20 27 28
18 13 19 13 12 0 -6 -12 -4 -11 6 1 7 9 18 14 24 12 6 -2 23 8 38 22 15 14 31
23 36 20 5 -3 12 6 16 20 3 14 13 29 20 33 20 11 26 90 10 114 -8 11 -13 27
-11 36 1 9 0 12 -2 5 -2 -7 -11 -9 -19 -6 -7 3 -11 9 -8 15 3 5 -2 8 -12 6
-12 -2 -18 2 -16 11 3 12 1 12 -14 0 -10 -8 -15 -9 -11 -3 4 7 0 15 -9 18 -10
4 -13 2 -8 -7 6 -9 5 -9 -8 0 -8 7 -18 10 -21 6 -4 -3 -7 -1 -7 6 0 7 -5 9
-12 5 -8 -4 -10 -3 -5 2 5 5 14 9 19 9 6 0 13 7 15 15 4 12 3 12 -5 1 -15 -21
-25 5 -11 31 11 20 11 22 -3 10 -12 -9 -18 -10 -23 -2 -4 6 -14 9 -22 6 -8 -4
-11 -1 -8 5 4 6 12 8 19 6 7 -3 13 4 13 15 2 16 -1 17 -13 7 -12 -10 -13 -9
-8 7 4 10 13 28 20 38 13 19 14 19 23 -5 6 -15 10 -18 10 -8 1 9 -6 22 -15 30
-13 11 -13 14 -1 21 10 5 13 16 9 30 -4 16 -2 19 8 13 8 -5 11 -4 7 2 -8 12
14 123 24 123 4 0 6 -8 4 -17 -1 -10 0 -12 2 -4 4 12 6 12 14 0 7 -10 8 -8 6
8 -2 11 -8 27 -14 35 -15 19 -12 47 5 41 11 -5 11 -7 0 -14z m-3 -39 c3 -6 -1
-7 -9 -4 -18 7 -21 14 -7 14 6 0 13 -4 16 -10z m173 -305 c-3 -3 -9 2 -12 12
-6 14 -5 15 5 6 7 -7 10 -15 7 -18z m-1088 -58 c0 -6 -9 0 -20 13 -11 13 -20
25 -20 28 0 3 9 -3 20 -13 11 -10 20 -23 20 -28z m19 4 c-2 -6 -10 2 -17 17
-11 25 -11 25 4 10 9 -9 15 -21 13 -27z m1335 -26 c-4 -8 -11 -12 -16 -9 -6 4
-5 10 3 15 19 12 19 11 13 -6z m-3294 -29 c0 -2 -7 -7 -16 -10 -8 -3 -12 -2
-9 4 6 10 25 14 25 6z m-4 -44 c0 -17 -5 -29 -13 -29 -9 0 -10 4 -3 11 14 14
13 29 -2 20 -9 -5 -9 -2 1 9 17 22 17 22 17 -11z m-5 -74 c-10 -11 -11 -9 -5
6 6 15 4 17 -6 11 -9 -6 -11 -4 -5 4 5 9 10 10 18 2 8 -8 7 -14 -2 -23z m0
-41 c-10 -9 -11 -8 -5 6 3 10 9 15 12 12 3 -3 0 -11 -7 -18z m3985 -57 c1 -22
-1 -42 -4 -44 -4 -2 -7 18 -8 45 0 57 8 57 12 -1z m-3985 13 c-12 -20 -14 -14
-5 12 4 9 9 14 11 11 3 -2 0 -13 -6 -23z m924 -49 c14 1 19 -5 17 -19 -3 -17
-2 -17 14 -4 10 7 15 9 11 3 -4 -7 0 -14 8 -18 9 -3 12 -12 8 -22 -4 -10 0
-22 10 -29 9 -7 18 -23 20 -35 2 -13 10 -26 18 -29 7 -2 19 -10 26 -17 10 -10
10 -13 0 -17 -7 -3 -5 -6 6 -6 10 -1 17 -9 17 -22 0 -11 4 -17 10 -14 6 4 8
-6 6 -24 -2 -17 -1 -33 2 -36 3 -3 7 -20 8 -37 2 -23 0 -28 -6 -18 -6 8 -10
23 -10 33 0 9 -5 17 -11 17 -5 0 -7 -6 -3 -12 5 -9 3 -9 -9 1 -9 7 -15 16 -13
20 3 4 -6 7 -19 7 -13 0 -21 -4 -18 -10 3 -5 1 -6 -4 -3 -14 9 -22 78 -8 70 5
-4 2 2 -7 13 -15 17 -16 26 -7 58 6 21 8 40 6 43 -3 2 -8 -9 -11 -25 -4 -16
-13 -29 -21 -29 -11 0 -12 4 -4 14 9 10 8 13 -2 13 -11 0 -11 2 1 10 12 8 11
10 -7 10 -21 0 -28 10 -24 33 0 4 -3 7 -9 7 -5 0 -10 5 -10 11 0 5 4 8 9 4 5
-3 13 0 17 6 4 8 3 9 -4 5 -16 -10 -15 16 1 34 10 12 9 12 -4 2 -9 -6 -19 -9
-23 -5 -4 4 -4 -1 0 -12 4 -11 4 -17 0 -14 -4 4 -9 19 -12 35 -2 16 -1 24 3
19 5 -6 17 -11 28 -11z m3552 -96 c-3 -8 -6 -5 -6 6 -1 11 2 17 5 13 3 -3 4
-12 1 -19z m-3442 -18 c3 -5 1 -10 -4 -10 -6 0 -11 5 -11 10 0 6 2 10 4 10 3
0 8 -4 11 -10z m1372 -22 c-3 -8 -6 -5 -6 6 -1 11 2 17 5 13 3 -3 4 -12 1 -19z
m-1360 -4 c-3 -3 -12 -4 -19 -1 -8 3 -5 6 6 6 11 1 17 -2 13 -5z m-407 -93
c12 -1 13 -3 1 -10 -10 -7 -5 -11 18 -16 17 -4 29 -10 26 -15 -3 -4 4 -6 16
-3 15 4 22 0 26 -17 4 -16 8 -18 14 -8 7 10 9 11 9 0 0 -7 4 -11 9 -8 4 3 6
-6 3 -21 -3 -18 -1 -24 7 -19 6 4 8 12 5 18 -5 7 -2 8 5 4 7 -5 10 -14 7 -22
-3 -8 -2 -13 2 -13 41 6 39 -21 -3 -37 -17 -7 -29 -18 -27 -25 2 -8 0 -11 -4
-6 -4 4 -17 -1 -28 -10 -20 -17 -20 -17 -6 2 12 17 10 16 -11 -2 -14 -13 -29
-23 -34 -23 -4 0 -14 -8 -22 -17 -12 -15 -14 -15 -10 -2 3 9 -1 16 -8 16 -8 0
-11 -7 -8 -16 4 -11 1 -9 -10 4 -8 10 -12 26 -9 34 3 8 1 12 -5 8 -6 -4 -19 6
-28 21 l-18 27 21 -19 c21 -18 21 -18 9 7 -7 15 -17 23 -26 19 -10 -4 -13 -1
-8 12 5 11 3 15 -5 10 -8 -5 -9 -2 -5 10 6 14 3 17 -10 12 -14 -6 -15 -4 -6 5
12 12 6 42 -7 34 -5 -3 -8 3 -7 14 0 11 5 17 9 15 4 -3 8 2 8 10 0 27 20 32
110 27z m493 -67 c-3 -8 0 -14 6 -14 6 0 11 -5 11 -11 0 -5 -4 -8 -8 -5 -5 3
-9 -1 -9 -9 0 -8 3 -14 6 -13 24 2 31 -5 11 -12 l-25 -8 28 -1 c16 -1 26 -4
24 -8 -7 -11 19 -33 28 -25 4 4 2 -4 -5 -17 -8 -15 -8 -21 -1 -17 6 4 11 0 11
-11 0 -14 2 -15 9 -5 6 10 10 4 14 -18 5 -20 11 -29 18 -24 7 4 9 3 6 -3 -3
-5 0 -21 8 -36 11 -22 11 -27 -3 -33 -10 -4 -20 -6 -24 -6 -5 1 -7 -1 -7 -6 3
-19 -2 -32 -13 -32 -6 0 -9 3 -5 6 3 4 0 13 -8 21 -8 8 -15 23 -15 34 0 13 -4
18 -12 13 -6 -4 -8 -3 -4 4 3 6 1 14 -5 17 -5 4 -8 14 -5 22 3 8 2 12 -2 9 -4
-3 -14 5 -21 16 -12 19 -11 20 5 14 17 -7 17 -6 1 12 -17 18 -17 20 -1 26 15
6 15 8 -3 24 -11 9 -21 24 -21 32 -5 48 -8 66 -15 76 -10 16 4 26 19 13 7 -6
10 -17 7 -25z m-82 -6 c11 -21 11 -22 -4 -9 -10 7 -17 17 -17 22 0 15 9 10 21
-13z m3320 -311 c-6 -8 -7 -18 -3 -22 4 -5 1 -5 -6 -1 -10 6 -10 11 -1 22 6 8
14 14 16 14 3 0 0 -6 -6 -13z m-4669 -321 c5 4 4 -4 -3 -17 -12 -23 -11 -23 6
-9 11 9 16 10 11 3 -4 -8 4 -23 21 -40 15 -14 23 -23 17 -20 -13 8 -12 -21 3
-48 6 -11 9 -26 7 -33 -1 -7 0 -8 3 -2 2 5 9 10 14 10 6 0 5 -10 -2 -22 -9
-19 -9 -21 1 -11 16 15 42 -8 38 -34 -2 -10 2 -18 9 -18 6 0 15 -4 19 -8 11
-11 14 -38 3 -31 -5 3 -6 10 -3 16 4 7 2 8 -4 4 -6 -4 -9 -12 -6 -19 6 -17
-48 -16 -69 1 -12 10 -17 10 -23 1 -4 -8 -3 -9 4 -5 7 4 12 2 12 -3 0 -15 -13
-14 -29 2 -9 7 -11 7 -8 1 4 -7 0 -14 -8 -17 -11 -5 -12 -1 -5 19 7 19 7 23
-2 18 -7 -5 -9 -2 -6 8 4 8 1 15 -7 15 -7 0 -11 -7 -8 -16 4 -14 3 -14 -5 -1
-8 10 -7 19 1 29 10 12 9 13 -2 6 -11 -6 -13 -4 -8 8 3 9 1 19 -5 23 -6 4 -8
3 -4 -4 3 -6 2 -14 -4 -17 -6 -4 -10 -3 -9 2 4 14 -13 63 -20 59 -3 -2 -6 10
-6 27 0 18 6 32 15 34 13 4 13 3 0 -6 -8 -6 -10 -11 -4 -11 18 0 24 12 13 26
-7 8 -7 14 1 19 6 3 7 12 4 18 -4 8 -2 7 7 -1 12 -11 12 -14 -1 -23 -13 -9
-13 -10 0 -6 9 2 16 16 16 33 1 16 3 40 4 54 3 24 3 24 7 2 2 -12 9 -19 15
-16z m4537 -12 c-9 -11 -9 -14 1 -14 9 0 8 -5 -3 -18 -10 -10 -15 -21 -12 -24
3 -3 -1 -10 -8 -17 -11 -9 -17 -8 -27 4 -11 13 -10 14 4 9 11 -4 16 -1 16 10
0 9 5 16 10 16 6 0 10 5 10 11 0 5 -6 7 -12 3 -7 -4 -5 2 5 13 9 11 14 23 10
28 -5 4 -2 5 5 1 10 -6 10 -11 1 -22z m-5369 2 c0 -2 -9 -6 -20 -9 -11 -3 -18
-1 -14 4 5 9 34 13 34 5z m478 -34 c13 11 14 11 8 0 -11 -19 -15 -62 -4 -56 5
3 7 12 6 19 -2 8 2 13 7 12 6 -1 8 -6 6 -12 -3 -8 -7 -26 -10 -44 -1 -2 -10 4
-20 13 -11 10 -17 25 -14 34 4 9 2 13 -4 9 -7 -5 -9 1 -5 15 3 13 7 17 10 10
3 -10 7 -10 20 0z m417 -62 c-3 -5 -1 -10 6 -10 7 0 10 -3 6 -6 -9 -9 -28 6
-22 17 4 5 8 9 11 9 3 0 2 -4 -1 -10z m2338 -147 c-7 -2 -19 -2 -25 0 -7 3 -2
5 12 5 14 0 19 -2 13 -5z m1881 -162 c3 -5 -2 -15 -12 -22 -15 -12 -16 -12 -5
2 7 9 10 19 6 22 -3 4 -4 7 0 7 3 0 8 -4 11 -9z m-5020 -17 c3 -8 2 -12 -4 -9
-6 3 -10 10 -10 16 0 14 7 11 14 -7z m640 -102 c-1 -13 -6 -27 -10 -30 -4 -4
-4 1 -1 11 4 9 3 17 -2 17 -4 0 -8 6 -8 13 0 8 6 14 12 14 7 0 11 -11 9 -25z
m71 -4 c4 4 2 -4 -6 -18 -7 -14 -13 -27 -12 -30 1 -4 -9 -6 -22 -6 -21 0 -24
4 -22 31 4 49 17 62 37 37 10 -12 21 -18 25 -14z m4207 -20 c-6 -6 -12 -6 -17
3 -5 8 -4 10 3 5 7 -4 12 0 13 11 0 12 2 13 6 5 3 -8 1 -18 -5 -24z m-3882
-142 c0 -2 -7 -7 -16 -10 -8 -3 -12 -2 -9 4 6 10 25 14 25 6z m3723 -11 c4 -8
3 -16 -1 -19 -4 -3 -9 4 -9 15 -2 23 3 25 10 4z m-2513 -39 c0 -6 -5 -3 -11 7
-6 9 -15 14 -21 11 -7 -4 -8 -2 -4 5 9 14 36 -3 36 -23z m157 -58 c-3 -8 -6
-5 -6 6 -1 11 2 17 5 13 3 -3 4 -12 1 -19z m-1664 -53 c-3 -9 -8 -14 -10 -11
-3 3 -2 9 2 15 9 16 15 13 8 -4z m3864 -7 c-3 -8 -6 -5 -6 6 -1 11 2 17 5 13
3 -3 4 -12 1 -19z m-72 -28 c-3 -5 -2 -10 4 -10 5 0 12 6 14 13 3 6 6 7 6 1 1
-6 -10 -21 -24 -34 -24 -22 -25 -22 -25 -4 0 11 5 25 12 32 15 15 21 16 13 2z
m-2821 -132 c-5 -8 -2 -9 9 -5 9 3 19 1 23 -5 4 -7 3 -8 -4 -4 -7 4 -12 3 -12
-2 0 -5 -6 -9 -14 -9 -7 0 -12 7 -11 16 5 22 4 21 11 21 3 0 2 -5 -2 -12z
m2536 -69 c0 -15 -18 -19 -23 -6 -3 8 1 14 9 14 8 0 14 -4 14 -8z m-100 -53
c0 -3 -4 -8 -10 -11 -5 -3 -10 -1 -10 4 0 6 5 11 10 11 6 0 10 -2 10 -4z
m-2123 -43 c5 3 10 0 10 -8 0 -8 -5 -13 -11 -12 -13 2 -26 18 -26 32 0 6 4 4
9 -4 5 -7 13 -11 18 -8z m106 -38 c-3 -9 -8 -14 -10 -11 -3 3 -2 9 2 15 9 16
15 13 8 -4z m1697 -40 c0 -2 -10 -9 -22 -15 -22 -11 -22 -10 -4 4 21 17 26 19
26 11z m-138 -42 c-6 -2 -10 -8 -8 -12 3 -4 -1 -8 -9 -8 -11 0 -12 4 -4 14 6
7 17 13 23 12 7 0 6 -2 -2 -6z m19 -16 c-10 -9 -11 -8 -5 6 3 10 9 15 12 12 3
-3 0 -11 -7 -18z m-1264 -19 c-3 -8 -6 -5 -6 6 -1 11 2 17 5 13 3 -3 4 -12 1
-19z m1135 3 c8 11 9 11 6 1 -4 -16 -22 -18 -25 -2 -1 7 0 6 4 -1 4 -8 8 -7
15 2z m-1049 -16 c-3 -9 -8 -14 -10 -11 -3 3 -2 9 2 15 9 16 15 13 8 -4z m65
-3 c15 12 16 11 3 -4 -14 -19 -32 -15 -30 5 0 8 2 8 6 -1 4 -10 8 -10 21 0z
m102 -28 c0 -8 -5 -12 -10 -9 -6 4 -8 11 -5 16 9 14 15 11 15 -7z m645 -2
c-10 -11 -35 -10 -42 0 -3 6 -1 8 5 4 6 -3 13 -2 17 4 4 6 11 8 16 4 6 -3 8
-9 4 -12z m-321 -10 c3 -5 -1 -9 -9 -9 -8 0 -12 4 -9 9 3 4 7 8 9 8 2 0 6 -4
9 -8z m40 0 c3 -5 -1 -9 -9 -9 -8 0 -12 4 -9 9 3 4 7 8 9 8 2 0 6 -4 9 -8z"/>
<path d="M4593 6614 c-5 -12 -7 -13 -14 -2 -6 9 -8 6 -6 -9 1 -15 5 -19 12
-13 7 6 16 6 23 0 8 -7 9 -7 3 1 -5 6 -7 18 -4 25 3 8 2 14 -1 14 -4 0 -9 -7
-13 -16z"/>
<path d="M4620 6616 c0 -8 4 -17 9 -20 5 -4 7 3 4 14 -6 23 -13 26 -13 6z"/>
<path d="M4640 6621 c0 -6 4 -13 10 -16 6 -3 7 1 4 9 -7 18 -14 21 -14 7z"/>
<path d="M5357 6613 c4 -11 8 -12 13 -3 6 9 9 9 13 -1 4 -11 6 -11 6 -1 1 7 5
11 11 7 5 -3 7 -13 4 -23 -4 -10 -2 -13 3 -7 9 12 23 13 40 2 6 -4 14 -3 18 3
3 5 4 11 1 11 -16 4 -26 7 -31 9 -3 1 -9 4 -15 5 -5 1 -11 4 -12 5 -2 1 -15 3
-30 4 -19 2 -25 -1 -21 -11z"/>
<path d="M4525 6600 c-3 -5 -1 -10 4 -10 6 0 11 5 11 10 0 6 -2 10 -4 10 -3 0
-8 -4 -11 -10z"/>
<path d="M5497 6585 c-4 -8 -3 -16 1 -19 4 -3 9 4 9 15 2 23 -3 25 -10 4z"/>
<path d="M4600 6525 c7 -8 10 -22 6 -30 -3 -8 -2 -15 3 -15 5 0 9 -27 9 -60 0
-42 -4 -58 -12 -53 -20 13 -35 11 -29 -4 5 -12 7 -12 14 -1 7 10 9 9 9 -4 0
-9 -7 -23 -15 -31 -13 -13 -13 -16 1 -21 8 -3 12 -2 9 4 -9 14 9 12 23 -2 9
-9 15 -9 25 1 10 10 9 11 -5 6 -10 -4 -18 -3 -18 2 0 5 15 10 33 11 24 2 28 0
17 -8 -13 -8 -12 -10 3 -10 9 0 17 4 17 8 0 13 39 12 82 -4 50 -17 48 -17 48
0 0 8 9 14 19 13 11 0 17 -5 15 -9 -3 -5 -11 -5 -17 -2 -7 4 -8 3 -4 -2 12
-13 30 -12 45 3 16 15 36 17 27 3 -7 -11 38 -14 49 -3 8 8 34 14 61 14 20 0
20 0 1 15 -11 8 -15 14 -9 14 5 0 18 -9 27 -19 17 -18 17 -19 -1 -23 -15 -3
-15 -5 5 -10 12 -3 20 -2 16 3 -6 11 10 12 20 2 10 -11 96 -11 90 -1 -8 13 11
9 25 -4 11 -11 13 -10 8 5 -5 12 -1 17 13 17 11 0 20 -4 20 -10 0 -5 10 -10
23 -10 18 0 19 2 7 11 -12 8 -11 9 5 6 11 -2 19 -8 18 -13 -1 -6 4 -11 12 -11
8 0 13 5 12 10 -1 5 4 12 12 15 8 2 11 0 7 -6 -3 -6 -2 -13 4 -17 5 -3 10 0
10 8 0 9 9 14 24 13 17 -1 22 -4 15 -13 -7 -8 -5 -10 10 -6 11 3 22 12 25 20
3 8 9 12 14 9 4 -2 8 4 8 15 0 26 -12 24 -20 -3 -5 -19 -8 -20 -15 -8 -7 10
-6 17 2 22 9 6 9 8 0 8 -17 0 -44 43 -45 72 -1 12 -6 29 -12 37 -8 11 -8 13 2
7 6 -4 12 -2 12 3 0 6 7 11 16 11 8 0 13 4 10 9 -3 4 4 8 15 7 11 0 24 -8 29
-16 6 -9 10 -10 10 -3 0 6 -5 15 -10 18 -6 4 -8 10 -6 13 2 4 -25 9 -61 10
-44 2 -63 0 -58 -7 3 -6 1 -11 -6 -11 -8 0 -9 -4 0 -13 8 -10 7 -14 -3 -14 -9
0 -13 8 -10 24 l5 24 -130 -2 -129 -1 -13 -29 c-6 -17 -21 -37 -33 -46 -16
-12 -17 -14 -3 -9 16 5 17 1 13 -34 -2 -24 0 -41 7 -44 7 -2 5 -5 -4 -5 -10
-1 -19 9 -21 24 -3 14 -1 25 5 25 6 0 3 8 -6 18 -17 19 -17 18 -17 65 0 33 0
33 -51 36 -47 2 -50 1 -44 -18 4 -15 2 -21 -8 -21 -10 0 -13 -8 -9 -27 4 -22
2 -25 -14 -20 -18 7 -18 6 0 -8 11 -8 14 -15 8 -15 -7 0 -11 -3 -11 -7 4 -25
-3 -43 -16 -43 -14 0 -20 12 -16 33 1 4 -6 10 -14 14 -14 5 -14 8 -2 22 9 9
14 31 12 51 -4 47 -4 47 -15 30 -6 -10 -10 -11 -10 -2 0 9 -25 12 -91 12 -80
0 -90 -2 -79 -15z m120 -35 c0 -11 -7 -20 -15 -20 -27 0 -18 30 13 39 1 1 2
-8 2 -19z m397 7 c14 6 15 -17 0 -28 -5 -3 6 -6 22 -7 29 -1 36 6 32 36 -1 6
3 12 10 12 7 0 9 -9 5 -26 -4 -14 -3 -23 2 -20 5 3 9 -17 8 -44 0 -28 -4 -50
-9 -50 -4 0 -5 -5 -2 -10 4 -6 1 -9 -7 -8 -7 2 -12 -3 -10 -10 1 -8 -2 -11 -8
-7 -8 5 -6 13 6 26 16 18 16 20 -11 46 -23 23 -26 24 -16 6 9 -18 8 -24 -9
-36 -11 -7 -17 -16 -15 -19 3 -3 -1 -8 -8 -11 -11 -4 -13 0 -10 14 3 10 0 19
-6 19 -13 0 -15 69 -1 90 6 9 5 20 -3 30 -9 12 -9 13 2 3 7 -6 20 -9 28 -6z
m-231 -62 c-1 -8 -5 -17 -8 -21 -5 -4 -4 16 1 34 3 9 9 -1 7 -13z m-171 -50
c-1 -14 -6 -29 -10 -33 -4 -4 -4 3 -1 16 5 13 3 22 -3 22 -6 0 -11 5 -11 10 0
6 6 10 14 10 9 0 13 -9 11 -25z m176 -16 c16 -8 18 -13 8 -25 -15 -18 -25 -18
-33 2 -5 13 -4 14 7 6 8 -7 17 -9 21 -5 4 4 -4 13 -16 20 -13 7 -19 12 -15 13
5 0 17 -5 28 -11z m-75 -11 c4 -6 3 -8 -4 -4 -16 10 -26 -13 -12 -29 9 -11 7
-12 -9 -8 -20 5 -20 13 2 41 12 15 14 15 23 0z m334 -38 c0 -5 -4 -10 -10 -10
-5 0 -10 5 -10 10 0 6 5 10 10 10 6 0 10 -4 10 -10z"/>
<path d="M5165 6416 c10 -14 19 -26 22 -26 7 0 -17 39 -28 46 -6 3 -3 -5 6
-20z"/>
<path d="M4997 6519 c-4 -16 -3 -18 9 -8 16 13 19 29 5 29 -5 0 -11 -9 -14
-21z"/>
<path d="M4570 6506 c0 -2 7 -6 15 -10 8 -3 15 -1 15 4 0 6 -7 10 -15 10 -8 0
-15 -2 -15 -4z"/>
<path d="M4182 6466 c1 -14 5 -23 9 -20 7 4 0 44 -7 44 -2 0 -3 -11 -2 -24z"/>
<path d="M4570 6477 c0 -8 7 -14 15 -14 11 0 12 4 4 14 -6 7 -13 13 -15 13 -2
0 -4 -6 -4 -13z"/>
<path d="M5376 6482 c-3 -5 1 -9 9 -9 8 0 15 4 15 9 0 4 -4 8 -9 8 -6 0 -12
-4 -15 -8z"/>
<path d="M4139 6468 c-6 -20 -6 -39 0 -42 4 -3 7 6 7 20 0 20 -4 32 -7 22z"/>
<path d="M5841 6454 c0 -11 3 -14 6 -6 3 7 2 16 -1 19 -3 4 -6 -2 -5 -13z"/>
<path d="M4081 6418 c-13 -20 -12 -22 1 -11 8 7 18 10 22 6 4 -4 4 0 0 10 -8
21 -6 21 -23 -5z"/>
<path d="M4810 6413 c0 -21 3 -24 9 -14 5 8 7 20 4 28 -8 21 -13 15 -13 -14z"/>
<path d="M3973 6367 c0 -8 6 -14 14 -13 18 3 18 20 0 24 -7 2 -14 -4 -14 -11z"/>
<path d="M6067 6326 c-4 -10 -1 -13 8 -9 8 3 12 9 9 14 -7 12 -11 11 -17 -5z"/>
<path d="M4997 6323 c-4 -3 -7 -11 -7 -17 0 -6 5 -5 12 2 6 6 9 14 7 17 -3 3
-9 2 -12 -2z"/>
<path d="M4706 6311 c-4 -5 3 -7 14 -4 23 6 26 13 6 13 -8 0 -17 -4 -20 -9z"/>
<path d="M3851 6296 c-9 -10 -7 -17 6 -27 10 -7 15 -9 11 -5 -4 5 -3 15 3 22
6 7 6 14 1 18 -6 3 -15 0 -21 -8z"/>
<path d="M3811 6276 c-8 -10 -9 -16 -1 -21 6 -3 8 -10 5 -15 -3 -5 -1 -11 4
-14 11 -7 9 13 -2 32 -5 6 -4 12 0 12 5 0 15 -6 23 -12 12 -11 12 -10 0 7 -8
11 -15 21 -16 23 -1 1 -7 -4 -13 -12z"/>
<path d="M6154 6248 c-4 -7 -3 -10 1 -5 5 4 18 -1 29 -10 21 -18 21 -18 2 5
-22 26 -23 26 -32 10z"/>
<path d="M6253 6199 c15 -9 16 -13 5 -27 -11 -15 -11 -15 3 -5 9 7 18 10 22 7
3 -3 4 2 3 12 -2 10 -13 19 -27 21 -21 2 -22 1 -6 -8z"/>
<path d="M6216 6192 c-3 -5 1 -9 9 -9 8 0 12 4 9 9 -3 4 -7 8 -9 8 -2 0 -6 -4
-9 -8z"/>
<path d="M3700 6169 c-7 -11 -10 -23 -7 -25 2 -2 9 7 15 21 14 30 7 33 -8 4z"/>
<path d="M3662 6145 c-8 -10 -9 -15 -2 -15 6 0 9 -4 6 -8 -3 -5 2 -9 10 -9 9
0 11 4 5 10 -5 5 -7 16 -4 23 7 18 1 17 -15 -1z"/>
<path d="M6248 6133 c7 -3 16 -2 19 1 4 3 -2 6 -13 5 -11 0 -14 -3 -6 -6z"/>
<path d="M4576 6045 c-11 -8 -15 -15 -9 -15 7 0 15 5 18 10 4 6 11 7 17 4 7
-4 8 -2 4 4 -9 14 -7 15 -30 -3z"/>
<path d="M5236 6052 c-3 -5 1 -9 9 -9 8 0 12 4 9 9 -3 4 -7 8 -9 8 -2 0 -6 -4
-9 -8z"/>
<path d="M4508 6039 c15 -6 21 -13 16 -21 -6 -9 -3 -9 9 1 18 14 23 26 8 16
-5 -3 -12 -1 -16 5 -3 5 -14 10 -23 9 -12 0 -10 -3 6 -10z"/>
<path d="M3517 6005 c-4 -8 -3 -16 1 -19 4 -3 9 4 9 15 2 23 -3 25 -10 4z"/>
<path d="M4750 6010 c-13 -8 -12 -10 3 -10 9 0 17 5 17 10 0 12 -1 12 -20 0z"/>
<path d="M5468 5973 c6 -2 12 -12 12 -21 0 -13 3 -13 12 -4 10 10 10 15 -2 22
-8 5 -19 9 -25 9 -5 0 -4 -3 3 -6z"/>
<path d="M3471 5950 c0 -8 4 -22 9 -30 12 -18 12 -2 0 25 -6 13 -9 15 -9 5z"/>
<path d="M3425 5900 c-3 -5 -3 -10 1 -10 4 0 -3 -12 -17 -27 -17 -20 -18 -23
-3 -11 15 13 23 15 31 7 9 -9 11 -7 8 7 -2 11 -4 21 -5 24 -1 3 -2 8 -1 13 2
10 -7 9 -14 -3z"/>
<path d="M5577 5883 c3 -7 9 -13 14 -13 21 0 24 -2 33 -23 8 -20 9 -21 14 -3
2 11 -3 23 -12 28 -9 5 -15 12 -12 16 2 4 -6 7 -19 7 -14 0 -21 -5 -18 -12z"/>
<path d="M4210 5848 c0 -4 4 -8 9 -8 6 0 12 4 15 8 3 5 -1 9 -9 9 -8 0 -15 -4
-15 -9z"/>
<path d="M3409 5833 c-13 -16 -12 -17 4 -4 9 7 17 15 17 17 0 8 -8 3 -21 -13z"/>
<path d="M4920 5801 c0 -13 28 -33 33 -23 3 4 -3 13 -14 20 -10 7 -19 8 -19 3z"/>
<path d="M4656 5741 c-4 -5 -2 -12 3 -15 5 -4 12 -2 15 3 4 5 2 12 -3 15 -5 4
-12 2 -15 -3z"/>
<path d="M4097 5721 c-4 -17 -3 -21 5 -13 5 5 8 16 6 23 -3 8 -7 3 -11 -10z"/>
<path d="M4690 5728 c0 -4 4 -8 9 -8 6 0 12 4 15 8 3 5 -1 9 -9 9 -8 0 -15 -4
-15 -9z"/>
<path d="M3245 5571 c-3 -5 -2 -12 3 -15 5 -3 9 1 9 9 0 17 -3 19 -12 6z"/>
<path d="M3225 5550 c10 -11 20 -20 23 -20 3 0 -3 9 -13 20 -10 11 -20 20 -23
20 -3 0 3 -9 13 -20z"/>
<path d="M4816 5547 c3 -10 9 -15 12 -12 3 3 0 11 -7 18 -10 9 -11 8 -5 -6z"/>
<path d="M4855 5500 c-4 -6 -11 -8 -16 -5 -16 10 -10 -2 9 -16 9 -7 14 -9 10
-5 -4 5 -3 15 3 23 6 7 9 13 6 13 -3 0 -9 -5 -12 -10z"/>
<path d="M3081 5202 c-7 -13 -7 -22 0 -29 8 -8 7 -13 0 -17 -6 -4 -11 -12 -11
-19 0 -6 6 -2 14 8 8 11 12 28 10 39 -2 11 2 24 9 28 9 6 9 8 0 8 -7 0 -17 -8
-22 -18z"/>
<path d="M3047 5053 c-10 -9 -9 -23 1 -23 5 0 9 7 9 15 0 17 -1 18 -10 8z"/>
<path d="M4315 5040 c-3 -5 -1 -10 4 -10 6 0 11 5 11 10 0 6 -2 10 -4 10 -3 0
-8 -4 -11 -10z"/>
<path d="M4356 5030 c-11 -3 -15 -9 -10 -13 10 -6 42 9 34 16 -3 3 -14 1 -24
-3z"/>
<path d="M3040 5001 c-13 -25 -13 -31 2 -31 6 0 8 3 5 6 -3 4 -2 15 4 25 5 11
7 19 5 19 -3 0 -10 -9 -16 -19z"/>
<path d="M3022 4901 c-1 -17 5 -34 15 -42 15 -11 16 -11 6 1 -7 8 -13 22 -13
33 0 12 4 16 13 11 8 -5 8 -2 -2 9 -17 22 -16 22 -19 -12z"/>
<path d="M3010 4801 c0 -5 7 -12 16 -15 14 -5 15 -4 4 9 -14 17 -20 19 -20 6z"/>
<path d="M3455 4510 c4 -6 11 -8 16 -5 14 9 11 15 -7 15 -8 0 -12 -5 -9 -10z"/>
<path d="M3039 4455 c-1 -3 -2 -8 -3 -12 -1 -5 -4 -12 -7 -18 -3 -5 -2 -21 2
-35 l8 -25 -1 25 c0 14 1 27 2 30 5 14 8 40 4 40 -2 0 -5 -2 -5 -5z"/>
<path d="M3100 4159 c0 -5 -6 -7 -12 -3 -7 5 -3 -5 10 -20 12 -16 19 -32 17
-36 -3 -5 -1 -11 4 -15 12 -7 5 35 -8 48 -5 5 -7 16 -4 23 3 8 2 14 -1 14 -3
0 -6 -5 -6 -11z"/>
<path d="M7360 6441 c0 -6 4 -13 10 -16 6 -3 7 1 4 9 -7 18 -14 21 -14 7z"/>
<path d="M7585 5810 c-16 -7 -17 -9 -3 -9 9 -1 20 4 23 9 7 11 7 11 -20 0z"/>
<path d="M7456 5858 c3 -5 10 -6 15 -3 13 9 11 12 -6 12 -8 0 -12 -4 -9 -9z"/>
<path d="M6148 5753 c7 -3 16 -2 19 1 4 3 -2 6 -13 5 -11 0 -14 -3 -6 -6z"/>
<path d="M6331 5424 c0 -11 3 -14 6 -6 3 7 2 16 -1 19 -3 4 -6 -2 -5 -13z"/>
<path d="M6350 5376 c0 -2 8 -10 18 -17 15 -13 16 -12 3 4 -13 16 -21 21 -21
13z"/>
<path d="M6539 5198 c-5 -18 -6 -38 -1 -34 7 8 12 36 6 36 -2 0 -4 -1 -5 -2z"/>
<path d="M6843 5093 c-10 -10 -14 -15 -8 -11 7 4 14 5 17 2 3 -2 8 2 11 11 8
19 4 19 -20 -2z"/>
<path d="M6895 5081 c-3 -5 -2 -12 3 -15 5 -3 9 1 9 9 0 17 -3 19 -12 6z"/>
<path d="M6940 5069 c0 -5 -6 -7 -12 -3 -7 4 -5 -2 5 -13 9 -11 14 -23 10 -28
-5 -4 -2 -5 5 0 9 5 10 11 4 17 -6 6 -8 17 -5 24 3 8 2 14 -1 14 -3 0 -6 -5
-6 -11z"/>
<path d="M6949 4986 c-16 -21 -16 -22 5 -23 11 0 15 1 8 4 -10 4 -10 8 -1 19
7 8 10 16 8 18 -2 2 -11 -6 -20 -18z"/>
<path d="M6000 4961 c0 -10 19 -25 25 -20 1 2 -3 10 -11 17 -8 7 -14 8 -14 3z"/>
<path d="M6475 4880 c-3 -5 -1 -10 4 -10 6 0 11 5 11 10 0 6 -2 10 -4 10 -3 0
-8 -4 -11 -10z"/>
<path d="M5310 4500 c0 -5 5 -10 11 -10 5 0 7 5 4 10 -3 6 -8 10 -11 10 -2 0
-4 -4 -4 -10z"/>
<path d="M5900 4215 c0 -2 6 -8 13 -14 10 -8 14 -7 14 2 0 8 -6 14 -14 14 -7
0 -13 -1 -13 -2z"/>
<path d="M5974 4175 c3 -23 12 -26 13 -5 1 11 -2 20 -7 20 -4 0 -7 -7 -6 -15z"/>
<path d="M6899 4134 c-5 -15 -8 -29 -5 -31 2 -2 8 10 14 26 13 38 5 41 -9 5z"/>
<path d="M5955 4130 c-3 -5 -1 -10 4 -10 6 0 11 5 11 10 0 6 -2 10 -4 10 -3 0
-8 -4 -11 -10z"/>
<path d="M5978 4097 c-3 -19 -2 -25 4 -19 6 6 8 18 6 28 -3 14 -5 12 -10 -9z"/>
<path d="M5695 4101 c-3 -5 -2 -12 3 -15 5 -3 9 1 9 9 0 17 -3 19 -12 6z"/>
<path d="M5230 4030 c-9 -6 -10 -10 -3 -10 6 0 15 5 18 10 8 12 4 12 -15 0z"/>
<path d="M6854 4022 c-12 -19 -8 -42 8 -42 7 0 7 4 -1 13 -8 10 -7 17 1 25 6
6 10 14 7 16 -3 3 -9 -3 -15 -12z"/>
<path d="M5292 4021 c-11 -7 -11 -9 2 -14 10 -4 16 -1 16 8 0 17 -1 17 -18 6z"/>
<path d="M5890 3790 c0 -5 5 -10 11 -10 5 0 7 5 4 10 -3 6 -8 10 -11 10 -2 0
-4 -4 -4 -10z"/>
<path d="M5872 3740 c0 -14 2 -19 5 -12 2 6 2 18 0 25 -3 6 -5 1 -5 -13z"/>
<path d="M6686 3638 c3 -5 10 -6 15 -3 13 9 11 12 -6 12 -8 0 -12 -4 -9 -9z"/>
<path d="M5737 3536 c-4 -10 -3 -15 3 -11 6 3 10 1 10 -6 0 -7 3 -10 6 -6 3 3
2 13 -4 22 -8 16 -9 16 -15 1z"/>
<path d="M4480 3471 c0 -6 4 -12 8 -15 5 -3 9 1 9 9 0 8 -4 15 -9 15 -4 0 -8
-4 -8 -9z"/>
<path d="M4525 3461 c-3 -5 0 -13 6 -17 7 -4 9 -3 5 4 -3 6 2 13 11 15 16 4
16 5 1 6 -9 0 -19 -3 -23 -8z"/>
<path d="M4296 3452 c-2 -4 -1 -14 4 -22 7 -11 9 -9 7 8 -1 24 -3 26 -11 14z"/>
<path d="M4385 3450 c3 -5 8 -10 11 -10 2 0 4 5 4 10 0 6 -5 10 -11 10 -5 0
-7 -4 -4 -10z"/>
<path d="M5657 3429 c7 -7 15 -10 18 -7 3 3 -2 9 -12 12 -14 6 -15 5 -6 -5z"/>
<path d="M4678 3423 c7 -3 16 -2 19 1 4 3 -2 6 -13 5 -11 0 -14 -3 -6 -6z"/>
<path d="M4200 3381 c0 -6 4 -13 10 -16 6 -3 7 1 4 9 -7 18 -14 21 -14 7z"/>
<path d="M3537 3365 c-4 -8 -3 -16 1 -19 4 -3 9 4 9 15 2 23 -3 25 -10 4z"/>
<path d="M3584 3355 c-4 -8 -11 -12 -17 -8 -6 3 -7 1 -3 -5 10 -16 14 -15 26
8 6 11 8 20 5 20 -3 0 -8 -7 -11 -15z"/>
<path d="M4877 3359 c7 -7 15 -10 18 -7 3 3 -2 9 -12 12 -14 6 -15 5 -6 -5z"/>
<path d="M3660 3340 c0 -4 7 -7 15 -6 23 3 26 12 5 13 -11 1 -20 -2 -20 -7z"/>
<path d="M3603 3326 c1 -6 -4 -10 -12 -8 -12 3 -12 0 -1 -12 7 -9 15 -16 18
-16 3 0 2 3 -1 7 -4 3 0 14 8 23 13 14 13 17 1 17 -8 0 -14 -5 -13 -11z"/>
<path d="M6426 3321 c-3 -5 2 -15 12 -22 15 -12 16 -12 5 2 -7 9 -10 19 -6 22
3 4 4 7 0 7 -3 0 -8 -4 -11 -9z"/>
<path d="M3621 3294 c0 -11 3 -14 6 -6 3 7 2 16 -1 19 -3 4 -6 -2 -5 -13z"/>
<path d="M3769 3293 c-13 -16 -12 -17 4 -4 9 7 17 15 17 17 0 8 -8 3 -21 -13z"/>
<path d="M3580 3284 c8 -10 15 -20 16 -22 1 -2 4 1 7 5 3 5 -4 15 -16 23 -21
12 -21 12 -7 -6z"/>
<path d="M6379 3273 c-13 -16 -12 -17 4 -4 9 7 17 15 17 17 0 8 -8 3 -21 -13z"/>
<path d="M6343 3237 c0 -8 6 -14 14 -14 9 0 10 4 2 14 -6 7 -12 13 -14 13 -1
0 -2 -6 -2 -13z"/>
<path d="M3667 3213 c-12 -12 -7 -21 21 -42 22 -15 29 -17 29 -6 0 8 -4 12 -8
9 -11 -6 -40 26 -34 37 7 10 1 12 -8 2z"/>
<path d="M3736 3152 c-3 -5 10 -23 28 -41 24 -24 36 -29 41 -20 5 7 4 10 -2 6
-14 -9 -31 14 -28 36 3 15 1 16 -11 6 -13 -10 -18 -6 -15 14 1 10 -7 9 -13 -1z"/>
<path d="M6211 3133 c7 -12 15 -20 18 -17 3 2 -3 12 -13 22 -17 16 -18 16 -5
-5z"/>
<path d="M4711 3084 c0 -11 3 -14 6 -6 3 7 2 16 -1 19 -3 4 -6 -2 -5 -13z"/>
<path d="M4810 3095 c0 -7 30 -13 34 -7 3 4 -4 9 -15 9 -10 1 -19 0 -19 -2z"/>
<path d="M4945 3090 c3 -5 8 -10 11 -10 2 0 4 5 4 10 0 6 -5 10 -11 10 -5 0
-7 -4 -4 -10z"/>
<path d="M4998 3093 c7 -3 16 -2 19 1 4 3 -2 6 -13 5 -11 0 -14 -3 -6 -6z"/>
<path d="M5075 3090 c-11 -5 -14 -9 -7 -9 6 -1 12 -5 12 -10 0 -11 -41 -8 -60
4 -9 5 -11 4 -6 -3 4 -7 2 -12 -3 -12 -6 0 -11 4 -11 8 0 5 -7 9 -15 9 -8 0
-15 -4 -15 -9 0 -14 -28 -9 -34 8 -3 8 -11 12 -17 8 -8 -4 -7 -9 2 -15 8 -5
-36 -8 -101 -7 -64 1 -121 -2 -128 -6 -14 -9 -16 -36 -2 -36 6 0 10 -5 10 -11
0 -7 -9 -5 -24 4 -21 14 -25 15 -30 1 -3 -8 -1 -12 4 -9 13 8 52 -14 45 -25
-3 -5 0 -12 6 -16 8 -5 9 -3 4 6 -5 8 -3 11 6 8 9 -3 18 7 26 26 l11 31 1 -44
c1 -31 -4 -48 -16 -57 -16 -12 -16 -13 -1 -8 12 4 16 1 13 -13 -2 -10 -4 -24
-4 -31 -1 -7 -5 -11 -9 -8 -5 3 -8 -10 -8 -29 1 -20 4 -31 10 -25 4 4 14 6 21
4 7 -3 16 0 21 7 5 9 2 10 -9 6 -10 -3 -17 -2 -17 3 0 6 9 10 20 10 11 0 20
-5 20 -11 0 -8 5 -7 16 2 14 11 18 11 29 -4 12 -17 31 -24 21 -8 -3 5 6 11 19
14 16 3 29 -1 34 -11 7 -12 12 -12 27 -3 16 11 16 12 2 7 -10 -3 -18 -1 -18 4
0 6 9 10 20 10 11 0 20 -4 20 -10 0 -5 5 -10 11 -10 5 0 7 5 3 12 -4 7 -3 8 5
4 6 -4 9 -12 6 -17 -10 -15 29 -10 53 7 13 9 32 14 43 11 22 -6 34 7 22 26
-12 18 -11 57 2 57 6 0 6 3 -1 8 -6 4 -10 25 -8 47 3 51 2 49 17 36 8 -6 17
-8 20 -5 4 4 5 -22 4 -57 -2 -58 -4 -64 -22 -61 -17 2 -16 0 5 -12 14 -9 19
-15 12 -16 -7 0 -10 -4 -7 -10 3 -5 1 -10 -5 -10 -6 0 -8 -4 -5 -10 3 -5 1
-10 -5 -10 -6 0 -9 -4 -6 -8 8 -13 67 -1 73 14 3 8 13 14 22 13 10 0 11 -2 3
-6 -6 -2 -9 -9 -6 -14 3 -6 15 -4 29 5 13 8 33 13 45 11 29 -6 43 32 24 63
-11 17 -12 22 -2 22 8 1 7 6 -4 14 -22 16 -23 32 -3 40 8 3 15 0 15 -7 0 -8 4
-7 10 3 6 10 5 17 -5 23 -19 10 -19 37 0 37 7 0 19 -8 24 -17 7 -12 11 -13 11
-5 0 14 -23 41 -37 45 -4 1 -7 6 -5 11 2 5 -5 3 -14 -5 -16 -12 -17 -12 -11 3
7 19 -8 34 -18 19 -3 -7 -15 -7 -30 -1 -19 7 -26 6 -34 -8 -6 -11 -23 -17 -54
-17 -39 -1 -45 1 -42 17 2 10 3 18 2 17 -1 0 -11 -4 -22 -9z m186 -7 c12 10
12 10 1 -3 -16 -18 -62 -21 -62 -3 0 9 6 10 24 3 16 -6 28 -5 37 3z m-126 -43
c3 -6 -1 -7 -9 -4 -18 7 -21 14 -7 14 6 0 13 -4 16 -10z m-291 -15 c3 -8 1
-15 -4 -15 -6 0 -10 7 -10 15 0 8 2 15 4 15 2 0 6 -7 10 -15z m64 -59 c0 -33
-5 -67 -11 -75 -10 -12 -9 -13 3 -6 8 4 6 -1 -5 -12 -22 -21 -60 -39 -50 -23
3 6 3 16 -2 23 -13 20 -14 47 -2 69 8 15 8 19 0 14 -7 -5 -11 3 -11 19 0 17 4
25 13 22 6 -2 11 -10 10 -16 -2 -6 2 -11 8 -11 5 0 7 -5 4 -11 -4 -6 2 -19 14
-30 12 -11 21 -15 21 -9 0 6 -7 13 -15 16 -11 5 -13 15 -9 38 4 17 7 36 7 42
0 6 6 11 12 11 8 0 12 -22 13 -61z m110 36 c2 -15 -2 -22 -12 -22 -9 0 -16 5
-16 10 0 6 5 10 10 10 6 0 10 5 10 11 0 5 -4 7 -10 4 -5 -3 -10 -1 -10 5 0 21
25 4 28 -18z m232 -2 c0 -4 -6 -10 -13 -13 -8 -3 -14 4 -15 20 -2 22 0 24 13
13 8 -7 15 -16 15 -20z m-233 -80 c-1 -11 -4 -20 -8 -20 -10 0 -20 30 -13 41
9 15 23 1 21 -21z m230 -16 c-3 -3 -12 -4 -19 -1 -8 3 -5 6 6 6 11 1 17 -2 13
-5z m-232 -24 c-3 -5 -11 -10 -16 -10 -6 0 -7 5 -4 10 3 6 11 10 16 10 6 0 7
-4 4 -10z m230 0 c-3 -5 -12 -10 -18 -10 -7 0 -6 4 3 10 19 12 23 12 15 0z
m-220 -40 c-3 -5 -10 -10 -16 -10 -5 0 -9 5 -9 10 0 6 7 10 16 10 8 0 12 -4 9
-10z m140 0 c-3 -5 -14 -10 -23 -10 -15 0 -15 2 -2 10 20 13 33 13 25 0z"/>
<path d="M4851 2896 c-9 -10 -7 -17 6 -27 16 -12 17 -12 6 2 -10 12 -10 18 -1
27 7 7 9 12 6 12 -3 0 -11 -6 -17 -14z"/>
<path d="M5110 3096 c0 -2 7 -7 16 -10 8 -3 12 -2 9 4 -6 10 -25 14 -25 6z"/>
<path d="M5160 3085 c0 -8 2 -15 4 -15 2 0 6 7 10 15 3 8 1 15 -4 15 -6 0 -10
-7 -10 -15z"/>
<path d="M4797 3079 c7 -7 15 -10 18 -7 3 3 -2 9 -12 12 -14 6 -15 5 -6 -5z"/>
<path d="M5300 3020 c0 -5 5 -10 11 -10 5 0 7 5 4 10 -3 6 -8 10 -11 10 -2 0
-4 -4 -4 -10z"/>
<path d="M6042 3000 c7 -11 17 -20 22 -20 5 0 1 9 -9 20 -10 11 -20 20 -22 20
-2 0 2 -9 9 -20z"/>
<path d="M6026 2987 c3 -10 9 -15 12 -12 3 3 0 11 -7 18 -10 9 -11 8 -5 -6z"/>
<path d="M5956 2962 c-3 -5 1 -9 9 -9 8 0 12 4 9 9 -3 4 -7 8 -9 8 -2 0 -6 -4
-9 -8z"/>
<path d="M5308 2942 c-3 -10 1 -27 9 -37 12 -17 13 -16 7 15 -8 43 -10 46 -16
22z"/>
<path d="M4035 2940 c-4 -6 -4 -14 -1 -17 3 -4 6 0 6 8 1 10 4 9 14 -4 13 -17
14 -17 20 0 4 10 4 14 0 10 -4 -4 -13 -2 -20 4 -8 7 -14 7 -19 -1z"/>
<path d="M5330 2876 c0 -2 7 -7 16 -10 8 -3 12 -2 9 4 -6 10 -25 14 -25 6z"/>
<path d="M5309 2853 c-1 -4 -1 -12 0 -16 1 -5 -3 -6 -8 -3 -5 4 -12 2 -15 -3
-3 -5 3 -11 13 -14 20 -5 37 28 20 39 -5 3 -10 2 -10 -3z"/>
<path d="M4256 2841 c-18 -7 -18 -8 -3 -14 9 -3 17 -2 17 4 0 6 5 7 12 3 7 -4
8 -3 4 4 -4 7 -8 12 -9 11 -1 0 -11 -4 -21 -8z"/>
<path d="M5716 2842 c2 -3 -2 -12 -9 -21 -10 -14 -10 -14 3 -5 8 6 23 10 33 9
9 -2 17 1 17 7 0 6 -6 8 -14 5 -7 -3 -18 -2 -23 3 -6 4 -8 5 -7 2z"/>
<path d="M4882 2819 c-10 -16 -10 -20 3 -25 9 -4 19 -4 22 0 4 3 -2 6 -12 6
-14 0 -15 3 -5 15 7 9 11 17 9 20 -3 2 -10 -5 -17 -16z"/>
<path d="M5060 2833 c8 -3 18 -11 22 -17 5 -7 8 -4 8 7 0 11 -7 17 -22 16 -16
0 -18 -2 -8 -6z"/>
<path d="M5235 2819 c-5 -15 -12 -18 -28 -13 -26 8 -21 1 12 -16 15 -8 21 -8
17 -1 -4 6 -2 11 4 11 6 0 9 4 5 9 -3 5 3 11 12 13 17 3 17 4 1 10 -12 5 -19
1 -23 -13z"/>
<path d="M5685 2830 c-4 -6 -11 -8 -16 -5 -16 10 -10 -2 9 -16 9 -7 14 -9 10
-5 -4 5 -3 15 3 23 6 7 9 13 6 13 -3 0 -9 -5 -12 -10z"/>
<path d="M5340 2820 c-9 -6 -10 -10 -3 -10 6 0 15 5 18 10 8 12 4 12 -15 0z"/>
<path d="M4781 2802 c-7 -14 -6 -19 4 -19 8 0 11 5 8 10 -3 5 1 13 8 18 10 6
10 9 2 9 -7 0 -17 -8 -22 -18z"/>
<path d="M4815 2801 c-3 -5 0 -13 6 -17 7 -4 9 -3 5 4 -3 5 0 13 6 15 9 4 10
6 1 6 -6 1 -14 -3 -18 -8z"/>
<path d="M4976 2795 c4 -8 8 -15 10 -15 2 0 4 7 4 15 0 8 -4 15 -10 15 -5 0
-7 -7 -4 -15z"/>
<path d="M5004 2802 c4 -3 14 -7 22 -8 9 -1 13 0 10 4 -4 3 -14 7 -22 8 -9 1
-13 0 -10 -4z"/>
<path d="M5146 2793 c-6 -14 -5 -15 5 -6 7 7 10 15 7 18 -3 3 -9 -2 -12 -12z"/>
<path d="M4720 2792 c0 -5 7 -9 15 -9 8 0 12 4 9 9 -3 4 -9 8 -15 8 -5 0 -9
-4 -9 -8z"/>
<path d="M5078 2793 c7 -3 16 -2 19 1 4 3 -2 6 -13 5 -11 0 -14 -3 -6 -6z"/>
<path d="M5320 2789 c0 -13 28 -18 33 -6 3 7 -3 13 -14 13 -11 0 -19 -3 -19
-7z"/>
<path d="M4405 2781 c-3 -5 0 -13 7 -18 16 -10 42 -14 33 -5 -4 4 -12 7 -18 7
-7 1 -11 6 -9 13 2 14 -4 16 -13 3z"/>
<path d="M5573 2777 c0 -8 6 -14 14 -14 9 0 10 4 2 14 -6 7 -12 13 -14 13 -1
0 -2 -6 -2 -13z"/>
<path d="M4526 2772 c-2 -4 2 -16 10 -27 8 -10 14 -14 14 -8 0 7 -5 15 -10 18
-6 4 -8 11 -5 16 4 5 4 9 1 9 -3 0 -7 -3 -10 -8z"/>
<path d="M5483 2773 c4 -3 1 -13 -6 -22 -11 -14 -10 -14 5 -2 16 12 16 31 1
31 -4 0 -3 -3 0 -7z"/>
<path d="M5530 2759 c0 -5 -4 -8 -9 -4 -5 3 -12 1 -15 -4 -4 -5 2 -8 11 -7 15
3 33 26 19 26 -3 0 -6 -5 -6 -11z"/>
<path d="M5443 2748 c1 -7 -4 -12 -11 -10 -8 1 -11 -2 -7 -8 5 -8 11 -8 21 1
7 6 11 15 8 20 -8 13 -14 11 -11 -3z"/>
<path d="M4623 2735 c0 -8 4 -12 9 -9 5 3 6 10 3 15 -9 13 -12 11 -12 -6z"/>
<path d="M4706 2713 c-6 -14 -5 -15 5 -6 7 7 10 15 7 18 -3 3 -9 -2 -12 -12z"/>
<path d="M5175 2701 c-3 -5 -2 -12 3 -15 5 -3 9 1 9 9 0 17 -3 19 -12 6z"/>
<path d="M5206 2702 c-3 -5 1 -9 9 -9 8 0 12 4 9 9 -3 4 -7 8 -9 8 -2 0 -6 -4
-9 -8z"/>
<path d="M4826 2692 c-3 -5 1 -9 9 -9 8 0 12 4 9 9 -3 4 -7 8 -9 8 -2 0 -6 -4
-9 -8z"/>
<path d="M4866 2692 c-3 -5 1 -9 9 -9 8 0 12 4 9 9 -3 4 -7 8 -9 8 -2 0 -6 -4
-9 -8z"/>
<path d="M4994 2682 c4 -3 14 -7 22 -8 9 -1 13 0 10 4 -4 3 -14 7 -22 8 -9 1
-13 0 -10 -4z"/>
<path d="M3966 4458 c3 -5 10 -6 15 -3 13 9 11 12 -6 12 -8 0 -12 -4 -9 -9z"/>
<path d="M3947 4435 c-4 -8 -3 -16 1 -19 4 -3 9 4 9 15 2 23 -3 25 -10 4z"/>
<path d="M4246 3971 c-4 -5 -2 -12 3 -15 5 -4 12 -2 15 3 4 5 2 12 -3 15 -5 4
-12 2 -15 -3z"/>
<path d="M4222 3950 c0 -14 2 -19 5 -12 2 6 2 18 0 25 -3 6 -5 1 -5 -13z"/>
<path d="M2796 3372 c-3 -5 1 -9 9 -9 8 0 12 4 9 9 -3 4 -7 8 -9 8 -2 0 -6 -4
-9 -8z"/>
<path d="M2820 3309 c0 -5 -4 -8 -9 -4 -5 3 -12 1 -15 -4 -4 -5 2 -8 11 -7 15
3 33 26 19 26 -3 0 -6 -5 -6 -11z"/>
<path d="M2636 3052 c-3 -5 1 -9 9 -9 8 0 12 4 9 9 -3 4 -7 8 -9 8 -2 0 -6 -4
-9 -8z"/>
<path d="M2641 3016 c-9 -11 -9 -16 1 -22 7 -4 10 -4 6 1 -4 4 0 14 10 21 9 7
12 14 6 14 -6 0 -17 -6 -23 -14z"/>
<path d="M5076 7182 c-3 -5 1 -9 9 -9 8 0 12 4 9 9 -3 4 -7 8 -9 8 -2 0 -6 -4
-9 -8z"/>
<path d="M5163 7177 c0 -8 6 -14 14 -14 9 0 10 4 2 14 -6 7 -12 13 -14 13 -1
0 -2 -6 -2 -13z"/>
<path d="M5205 7170 c-3 -5 -1 -10 4 -10 6 0 11 5 11 10 0 6 -2 10 -4 10 -3 0
-8 -4 -11 -10z"/>
<path d="M4606 7157 c3 -10 9 -15 12 -12 3 3 0 11 -7 18 -10 9 -11 8 -5 -6z"/>
<path d="M4630 7152 c0 -5 7 -9 15 -9 8 0 12 4 9 9 -3 4 -9 8 -15 8 -5 0 -9
-4 -9 -8z"/>
<path d="M5425 7150 c-4 -6 -4 -14 -1 -17 3 -4 6 0 6 7 0 9 5 8 19 -4 15 -14
21 -15 27 -4 4 7 3 10 -1 5 -5 -4 -16 0 -26 9 -12 11 -19 12 -24 4z"/>
<path d="M5574 7118 c3 -15 26 -23 26 -8 0 6 -4 9 -9 6 -5 -4 -12 -1 -14 4 -3
6 -4 5 -3 -2z"/>
<path d="M4235 7081 c-3 -5 -2 -12 3 -15 5 -3 9 1 9 9 0 17 -3 19 -12 6z"/>
<path d="M4200 7065 c-7 -9 -11 -17 -9 -20 3 -2 10 5 17 15 14 24 10 26 -8 5z"/>
<path d="M5776 7067 c3 -10 9 -15 12 -12 3 3 0 11 -7 18 -10 9 -11 8 -5 -6z"/>
<path d="M5840 7041 c0 -6 4 -13 10 -16 6 -3 7 1 4 9 -7 18 -14 21 -14 7z"/>
<path d="M4062 7021 c-11 -7 -11 -9 0 -14 9 -3 15 1 15 9 0 8 -1 14 -1 14 -1
0 -7 -4 -14 -9z"/>
<path d="M3993 6973 c0 -9 4 -10 14 -2 7 6 13 12 13 14 0 1 -6 2 -13 2 -8 0
-14 -6 -14 -14z"/>
<path d="M6066 6945 c-4 -11 -4 -16 0 -12 4 4 12 2 19 -3 8 -7 12 -5 12 5 0 8
-4 12 -8 9 -4 -2 -9 1 -11 8 -3 7 -7 4 -12 -7z"/>
<path d="M3731 6866 c-9 -11 -9 -16 1 -22 7 -4 10 -4 6 1 -4 4 -3 14 3 22 6 7
9 13 6 13 -2 0 -10 -6 -16 -14z"/>
<path d="M6289 6868 c-7 -24 -4 -40 9 -50 15 -11 15 -11 6 2 -6 8 -10 23 -9
33 3 13 -2 26 -6 15z"/>
<path d="M3706 6832 c-3 -5 1 -9 9 -9 8 0 12 4 9 9 -3 4 -7 8 -9 8 -2 0 -6 -4
-9 -8z"/>
<path d="M3626 6785 c-9 -26 -7 -32 5 -12 6 10 9 21 6 23 -2 3 -7 -2 -11 -11z"/>
<path d="M6436 6731 c-3 -5 5 -16 19 -25 14 -9 25 -12 25 -7 0 5 -9 13 -20 16
-11 4 -18 11 -15 16 4 5 4 9 1 9 -3 0 -7 -4 -10 -9z"/>
<path d="M3459 6683 c-13 -16 -12 -17 4 -4 9 7 17 15 17 17 0 8 -8 3 -21 -13z"/>
<path d="M6657 6573 c-3 -5 -1 -17 4 -28 6 -17 7 -16 6 8 -1 28 -3 32 -10 20z"/>
<path d="M3326 6562 c-3 -6 -1 -14 5 -17 15 -10 25 3 12 16 -7 7 -13 7 -17 1z"/>
<path d="M6682 6529 c2 -6 7 -10 12 -9 5 1 17 -11 27 -26 16 -25 18 -26 16 -6
0 11 -3 19 -6 17 -2 -3 -10 4 -18 15 -15 21 -37 28 -31 9z"/>
<path d="M6779 6483 c-13 -16 -12 -17 4 -4 9 7 17 15 17 17 0 8 -8 3 -21 -13z"/>
<path d="M6814 6429 c-4 -7 -3 -9 4 -5 5 3 13 0 15 -6 4 -9 6 -10 6 -1 1 17
-16 25 -25 12z"/>
<path d="M6870 6423 c0 -6 8 -17 18 -24 16 -13 16 -13 2 6 -8 11 -16 22 -17
24 -2 2 -3 0 -3 -6z"/>
<path d="M3043 6255 c0 -8 4 -12 9 -9 5 3 6 10 3 15 -9 13 -12 11 -12 -6z"/>
<path d="M2982 6170 c0 -14 2 -19 5 -12 2 6 2 18 0 25 -3 6 -5 1 -5 -13z"/>
<path d="M7985 6131 c-3 -5 -2 -12 3 -15 5 -3 9 1 9 9 0 17 -3 19 -12 6z"/>
<path d="M2857 5999 c7 -7 15 -10 18 -7 3 3 -2 9 -12 12 -14 6 -15 5 -6 -5z"/>
<path d="M2743 5779 c-2 -23 3 -25 10 -4 4 8 3 16 -1 19 -4 3 -9 -4 -9 -15z"/>
<path d="M2694 5713 c-1 -21 2 -30 7 -22 4 7 6 16 3 20 -2 4 1 9 7 11 8 3 7 7
-2 15 -11 9 -14 5 -15 -24z"/>
<path d="M2666 5594 c-8 -21 -8 -34 2 -34 4 0 8 11 8 25 2 29 -1 32 -10 9z"/>
<path d="M2619 5508 c-3 -11 -5 -48 -3 -48 11 0 23 40 14 45 -5 3 -10 5 -11 3z"/>
<path d="M7420 5425 c0 -5 5 -17 10 -25 5 -8 10 -10 10 -5 0 6 -5 17 -10 25
-5 8 -10 11 -10 5z"/>
<path d="M2582 5384 c-1 -13 0 -24 2 -24 7 0 14 40 7 44 -4 3 -8 -6 -9 -20z"/>
<path d="M7451 5384 c0 -11 3 -14 6 -6 3 7 2 16 -1 19 -3 4 -6 -2 -5 -13z"/>
<path d="M7456 5151 c-3 -4 4 -17 17 -27 22 -19 22 -19 4 2 -9 11 -14 24 -10
27 3 4 4 7 0 7 -3 0 -8 -4 -11 -9z"/>
<path d="M2502 5077 c-8 -10 -6 -13 11 -14 12 0 16 1 9 4 -6 3 -10 9 -6 14 8
14 -2 11 -14 -4z"/>
<path d="M7487 5013 c-2 -5 -2 -14 -1 -20 1 -7 2 -24 3 -38 0 -14 5 -25 10
-25 6 0 6 12 2 28 -5 15 -7 35 -5 45 2 18 -2 23 -9 10z"/>
<path d="M2494 4881 c1 -16 3 -32 6 -35 3 -3 5 8 5 24 0 16 -3 31 -6 34 -3 3
-5 -7 -5 -23z"/>
<path d="M2483 4796 c1 -6 -4 -10 -11 -8 -8 1 -11 -2 -7 -8 5 -8 13 -6 26 6
23 21 23 21 5 21 -8 0 -14 -5 -13 -11z"/>
<path d="M7503 4791 c0 -11 5 -18 9 -15 4 3 5 11 1 19 -7 21 -12 19 -10 -4z"/>
<path d="M2483 4685 c0 -8 4 -12 9 -9 5 3 6 10 3 15 -9 13 -12 11 -12 -6z"/>
<path d="M7514 4676 c1 -8 5 -18 8 -22 4 -3 5 1 4 10 -1 8 -5 18 -8 22 -4 3
-5 -1 -4 -10z"/>
<path d="M2489 4658 c-5 -18 -6 -38 -1 -34 7 8 12 36 6 36 -2 0 -4 -1 -5 -2z"/>
<path d="M7510 4516 c0 -2 8 -10 18 -17 15 -13 16 -12 3 4 -13 16 -21 21 -21
13z"/>
<path d="M7485 4271 c-3 -5 -2 -12 3 -15 5 -3 9 1 9 9 0 17 -3 19 -12 6z"/>
<path d="M2509 4257 c6 -8 7 -18 3 -22 -4 -5 -1 -5 6 -1 10 6 10 11 1 22 -6 8
-14 14 -16 14 -3 0 0 -6 6 -13z"/>
<path d="M7470 4246 c0 -2 8 -10 18 -17 15 -13 16 -12 3 4 -13 16 -21 21 -21
13z"/>
<path d="M2513 4205 c0 -8 4 -12 9 -9 5 3 6 10 3 15 -9 13 -12 11 -12 -6z"/>
<path d="M7474 4195 c0 -13 3 -22 7 -19 8 4 6 30 -2 38 -3 3 -5 -5 -5 -19z"/>
<path d="M2525 4160 c-3 -6 1 -7 9 -4 18 7 21 14 7 14 -6 0 -13 -4 -16 -10z"/>
<path d="M7434 4095 c-3 -8 -4 -20 -1 -27 3 -7 6 -3 6 10 1 15 5 21 13 16 7
-4 8 -3 4 4 -10 16 -15 15 -22 -3z"/>
<path d="M2546 4042 c-8 -13 0 -46 11 -49 6 -2 14 1 18 6 4 7 -1 8 -12 4 -17
-6 -17 -5 0 14 9 11 14 23 10 26 -9 9 -21 9 -27 -1z m24 -6 c0 -3 -4 -8 -10
-11 -5 -3 -10 -1 -10 4 0 6 5 11 10 11 6 0 10 -2 10 -4z"/>
<path d="M2109 3713 c-13 -16 -12 -17 4 -4 9 7 17 15 17 17 0 8 -8 3 -21 -13z"/>
<path d="M7075 3259 c-4 -12 -2 -26 5 -33 8 -8 9 -6 4 8 -4 11 -2 21 6 26 8 5
9 10 2 14 -6 3 -14 -3 -17 -15z"/>
<path d="M6947 3090 c-9 -11 -14 -20 -12 -20 3 0 1 -9 -5 -19 -7 -14 -7 -22 0
-26 6 -4 9 -3 8 2 -4 16 14 53 23 48 5 -4 6 2 2 12 -6 16 -5 17 13 3 18 -14
18 -14 5 3 -16 21 -13 21 -34 -3z"/>
<path d="M6836 2957 c3 -10 9 -15 12 -12 3 3 0 11 -7 18 -10 9 -11 8 -5 -6z"/>
<path d="M3104 2928 c-4 -5 -3 -12 0 -15 3 -4 6 -1 6 6 0 7 4 10 9 6 5 -3 12
-2 15 3 3 5 -2 9 -10 9 -8 0 -17 -4 -20 -9z"/>
<path d="M3173 2895 c0 -8 4 -12 9 -9 5 3 6 10 3 15 -9 13 -12 11 -12 -6z"/>
<path d="M3195 2881 c-3 -5 -2 -12 3 -15 5 -3 9 1 9 9 0 17 -3 19 -12 6z"/>
<path d="M3259 2849 c5 -15 7 -29 5 -32 -3 -3 -1 -8 5 -11 13 -8 4 45 -10 59
-7 7 -7 1 0 -16z"/>
<path d="M2955 2849 c-4 -6 -5 -12 -2 -15 2 -3 7 2 10 11 7 17 1 20 -8 4z"/>
<path d="M3297 2816 c-4 -10 -3 -15 3 -11 6 3 10 -2 11 -12 0 -10 3 -13 5 -6
3 7 1 20 -4 29 -8 15 -9 15 -15 0z"/>
<path d="M6625 2770 c-3 -5 -3 -10 1 -10 4 0 -1 -10 -12 -22 -12 -14 -13 -18
-3 -10 9 6 20 8 24 4 5 -4 5 -2 1 5 -3 6 -2 14 4 18 5 3 10 10 10 16 0 12 -17
12 -25 -1z"/>
<path d="M6665 2771 c-3 -5 -2 -12 3 -15 5 -3 9 1 9 9 0 17 -3 19 -12 6z"/>
<path d="M3525 2631 c-3 -6 1 -11 10 -11 10 0 13 -5 9 -12 -4 -6 -3 -8 3 -5
13 8 35 -17 25 -29 -4 -4 1 -2 11 5 20 15 23 2 5 -19 -11 -12 -10 -12 4 -2 11
9 18 10 23 2 3 -6 11 -8 16 -5 12 8 12 -8 -1 -21 -7 -7 -7 -11 3 -11 15 0 21
43 7 52 -6 3 -10 1 -10 -5 0 -6 -12 3 -26 20 -15 17 -29 28 -32 25 -3 -3 -13
2 -23 11 -11 10 -19 12 -24 5z"/>
<path d="M6261 2494 c0 -11 3 -14 6 -6 3 7 2 16 -1 19 -3 4 -6 -2 -5 -13z"/>
<path d="M3746 2478 c3 -5 10 -6 15 -3 13 9 11 12 -6 12 -8 0 -12 -4 -9 -9z"/>
<path d="M3790 2465 c0 -5 5 -17 10 -25 5 -8 10 -10 10 -5 0 6 -5 17 -10 25
-5 8 -10 11 -10 5z"/>
<path d="M3823 2443 c0 -11 7 -20 14 -20 10 0 10 4 1 16 -7 9 -13 18 -15 20
-1 2 -1 -5 0 -16z"/>
<path d="M3939 2398 c-7 -23 -4 -35 7 -35 9 0 11 4 4 12 -5 7 -7 15 -3 18 3 4
3 7 0 7 -4 0 -7 -1 -8 -2z"/>
<path d="M6039 2363 c-13 -16 -12 -17 4 -4 16 13 21 21 13 21 -2 0 -10 -8 -17
-17z"/>
<path d="M4033 2337 c-3 -6 -1 -7 5 -3 5 3 12 1 14 -6 3 -8 6 -7 10 3 7 17
-19 22 -29 6z"/>
<path d="M4586 2183 c-6 -14 -5 -15 5 -6 7 7 10 15 7 18 -3 3 -9 -2 -12 -12z"/>
<path d="M5341 2174 c0 -11 3 -14 6 -6 3 7 2 16 -1 19 -3 4 -6 -2 -5 -13z"/>
<path d="M5363 2175 c0 -8 4 -12 9 -9 5 3 6 10 3 15 -9 13 -12 11 -12 -6z"/>
<path d="M4883 2155 c-3 -9 -3 -18 -1 -21 3 -3 8 4 11 16 6 23 -1 27 -10 5z"/>
</g>
</svg>
